<?xml version="1.0" encoding="UTF-8"?>
<svg id="Layer_2" data-name="Layer 2" xmlns="http://www.w3.org/2000/svg" viewBox="0 0 389.16 384.47">
  <defs>
    <style>
      .cls-1 {
        fill: #00abe3;
      }

      .cls-1, .cls-2, .cls-3, .cls-4, .cls-5, .cls-6, .cls-7, .cls-8, .cls-9, .cls-10, .cls-11, .cls-12, .cls-13, .cls-14 {
        fill-rule: evenodd;
      }

      .cls-2 {
        fill: #ffcb05;
      }

      .cls-3 {
        fill: #ffc90d;
      }

      .cls-4 {
        fill: #fff;
      }

      .cls-5 {
        fill: #ffcb0b;
      }

      .cls-6 {
        fill: #0c4e99;
      }

      .cls-7 {
        fill: #fffef6;
      }

      .cls-8 {
        fill: #fac90e;
      }

      .cls-9 {
        fill: #ed1c24;
      }

      .cls-10 {
        fill: #fffef4;
      }

      .cls-11 {
        fill: #000002;
      }

      .cls-12 {
        fill: #00529f;
      }

      .cls-13 {
        fill: #09a3ae;
      }

      .cls-14 {
        fill: #ffcb11;
      }
    </style>
  </defs>
  <g id="Layer_1-2" data-name="Layer 1">
    <g>
      <path class="cls-2" d="M152.72,271.49c1.47-.62,4.25-1.57,6.23-1.65l.07,28.22c2.12.46,18.5-4.72,29.15-1.59,1.36.4,2.8.82,3.99,1.49.85.48,2.15,1.68,2.97,2.06,1.65-.31,3.67-2.45,6.9-3.29,14.05-3.66,25.58,1.88,30.29,1.73.25-8.33.02-19.63,0-28.27,1.38.01,5.15,1.42,6.16,2l-.03,33.38c-1.65.04-7.6-1.82-9.49-2.4-3.42-1.06-6.24-1.4-9.93-2-5.32-.87-15.12-2.15-19.09,2.79l-9.63-.14c-.82-1.32.07-.58-1.27-1.47-4.54-3.03-12.46-2.12-17.43-1.29-3.59.6-6.27,1.15-9.59,1.92l-9,1.67c-.69-.79-.41-28.62-.3-33.16h0ZM198.09,293.31c1.73.03,3.91-.93,5.88-1.33,4.59-.94,12.17-1.11,16.63,0,1.25.31,6.05,1.59,6.8,1.56.52-7.32.15-27.93.09-37.3-2.4-.12-9.31,4.38-20.16,4.76-2.23.08-6.01-.3-7.67.67-2.29,1.34-1.62,3.61-1.63,6.69-.01,5.84-.33,21.06.06,24.97h0ZM163.77,256.82l-.1,36.56c1.89,0,4.98-1.01,7.01-1.39,5.78-1.08,9.59-1.09,15.41-.15,1.77.29,5.54,1.55,7.03,1.48l.03-30.11c-4.27-3.1-6.64-.88-15.57-2.37-9.09-1.52-8.8-2.76-13.81-4.02h0ZM221.46,219.56c-.01-4.04.09-4.76,1.51-7.75,3.04-6.43,8.92-9.64,14.76-13.2,3.7-2.25,22.64-10.43,26.63-10.39l.09,2.14c.47,22.98-11.01,43.07-28.14,54.97-2.71,1.88-14.12,8.95-17.74,8.54l.09-3.7,2.74-.23.08-30.38h0ZM256.48,161.47c.62.49,4.84,9.52,4.44,10.82,1.2.5,1,1.43,1.37,2.9.58,2.34,1.91,6.84,1.46,9.01-6.98.44-21.73.05-30.1.05l-7.73.02c-1.12-.02-1.51-.02-1.86-.41-.95-1.4-.29-9.71-.29-12.12,0-3.4-.33-8.85.11-11.99,1.67-.52,21.33-.23,25.81-.22,6.38,0,5.93-.54,6.79,1.95h0ZM171.32,188.77l-16.55.09c13.78,1.98,36.6,10.38,39.55,26.07l1.91.44.06,27.43,3.12.06.19,8.18,12.34-2.76.16-5.19,3.45-.07v-45.92s23.23-7.87,23.23-7.87l-28.38-.27-.08-34.05,27.75-.13-23.95-7.04-.16-3.2c-3.19-.47-30.19-.13-35.84-.13-10.91,0-5.68-.86-14.1,3.95-1.87,1.07-3.88,2.07-6,2.98-4.8,2.07-5.77,1.36-5.49,3.63l18.01.12-2.41,1.2c-9.28,3.92-12.66,13.95-9.15,22.4,3.36,8.1,11.39,9.51,12.35,10.09h0ZM124.2,190.68c0-14.77,6.29-28.73,14.88-39.35,13.12-16.21,34.29-25.79,55.4-25.76,6.76.01,6.86.56,12.21,1.14,2.7.3,3.49.59,5.54,1.21,1.73.52,3.76.75,5.44,1.41,10.8,4.26,16.99,7.36,25.43,14.98,1.07.97,2.4,2.33,3.39,3.35l2.66,2.47c.33.37.25-.45.33.86-5.57.82-21.07-2.61-27.03-8.16l-2.29-2.45-54.56.03c-.94.4-4.23,6.53-14.65,9.31-2.26.6-4.72.62-6.85,1.24l.14,12.01,7.75.24c.04.64.47,21.84-.29,22.58-1.38,1.01-5.53.19-7.6.44l.15,12.63c4.38.43,7.94.04,12.21.86,11.13,2.14,17.49,4.89,24.83,14.75,6.65,8.95,10.82,28.21,9.77,42.75-8.17.74-20.99-3.05-27.15-5.81-3.64-1.63-7.38-3.72-10.55-5.8-4.47-2.93-5.28-4.01-8.93-7.11-4.6-3.9-9.5-10.43-12.54-16.01-.38-.69-.97-1.56-1.36-2.46-4.47-10.21-6.32-17.14-6.32-29.35h0ZM181.47,114.09c.88-3.85,1.6-7.88,2.35-11.73.9-4.63.39-4.64,2.29-4.73l11.24.06,3.94,15.59,11.49,1.52,10.36-13.3,12.71,4.92-2.83,15.24c1.79.75,4.66,2.55,6.37,3.55,4.54,2.66,4.07,3.01,6.18,1.66,3.86-2.48,8.16-5.27,12.15-7.42,1.08.39,8.51,6.7,9.65,8-.54,1.69-2.9,5.41-3.87,7.07-.99,1.69-3.41,5.4-3.9,7.05.99,1.71,5.8,8.13,7.11,9.36,4.71-.2,11.59-3,16.03-2.93,1.17,2.72,4.89,8.85,5.33,11.39-1.54.81-11.81,7.62-12.91,8.82.16,1.76.85,4.1,1.28,5.99l1.44,5.35s.09.13.13.33l15.69,2.49v12.93s-15.59,5.18-15.59,5.18c-.51,1.78-2.25,10.42-2.12,12.02,2.22,1.87,4.72,3.34,7.14,5.08l5.48,3.81c.31.22.58.38.93.68.63.53.22.08.77.73l-5,10.37-17.11-1.83c-.89,1.66-2.7,4.03-3.88,5.71-2.14,3.05-2.91,2.47-1.1,5.57,2.09,3.57,5.22,8.24,6.94,11.91-.54.99-6.07,7.04-7.3,8.05-2.3-.46-11.41-6.06-14.4-7.49-1.64-.78-4.05,1.36-6.7,3.05-3.8,2.42-2.72,2.73-7.72,1.18l.08-7.26c17.08-10.46,34.55-30.31,34.58-59.48.05-39.85-34.33-70.42-74.53-70.42-35.98,0-63.73,23.6-71.79,51.6-9.12,31.72,5.63,61.91,31.51,78.04,1.17.73,3.62,1.9,4.49,2.72.11,3.79.89,6.4-2.42,8.93l-11.54-6.83c-1.87.62-5.88,3.52-7.67,4.67-2,1.28-5.31,3.66-7.41,4.58-1.33-.78-8.2-7.92-8.77-9.1.8-2.28,2.68-5.13,3.81-7.19,1.12-2.04,3.07-4.9,3.85-6.93-1.03-2.17-5.44-8.04-6.94-9.56l-17.02,3.12-4.21-11.85c.91-1.09,8.2-6.49,9.93-7.8,3.41-2.6,3.52-.6.88-12.56-3.28-.99-16.06-2.25-17.7-3.48-.68-1.16-.35-10.16-.32-12.38l17.57-4.87c.5-2.36,1.69-7.99,1.56-10.2l-13.48-8.68c.12-1.02,3.2-10.61,4.22-12.17l17.64,1.97c1.1-1.03,4.75-6.71,5.57-8.46-.53-1.51-3.66-5.45-4.71-6.95-1.53-2.17-3.25-4.37-4.57-6.53.58-.98,8.16-8.82,9.24-9.55l15.05,8.11,8.72-6.28-2.35-16.39,11.88-5.02c.92.58,10.22,11.66,11.28,13.13l11-2.18h0ZM81.84,303.57c4.76-2.66,11.02-5.87,16.81-1.33,1.7,1.33,3.62,4.2,4,7.21.58,4.56-.38,6.35-1.53,9.61.06.04.15.04.18.13l8.34,5.43c1.71.99,7.66,4.71,9.38,5.05l7.73-4.23c33.19-17.44,73.62-21.28,109.85-11.31,8.42,2.32,18.49,5.96,26.06,9.9,2.85,1.48,5.42,3.04,8.13,4.38,3.81.31,14.94-8.78,18.72-10.73-1.06-4.79-2.33-10.82,2.93-15.24,4.6-3.87,12.33-2.38,15.21.12.42-.9,3.28-3.52,4.05-4.31,1.52-1.55,2.47-2.7,3.82-4.21,4.81-5.36,19.26-23.57,20.22-28.71l-35.02-8.46c-.49.49-7.16,14.69-9.28,18.25l-6.31,10.01c-2.52,3.96-6.33,8.63-9.52,12.32-1.61,1.87-3.39,4.04-5.17,5.76-.99.96-4.99,4.59-5.37,5.65l3.93,2.4c-.28,1.36-1.19,2.68-2.31,3.39-2.31-.61-3.48-2.45-5.45-2.68-1.27.79-2.21,2.06-3.85,2.73-.51.03-2.84-1.44-3.19-2.73.98-1.32,2.32-1.42,2.82-2.89-6.69-5.99-9.98-2.51-9.54-10.59,2.52,0,10.41,6.99,13.44,7.42,2.15-1.02,8.84-8.44,10.79-10.75,8.12-9.61,10.99-14.03,17.36-25,1.28-2.2,6.42-12.01,6.78-14.36-2.33-1.33-9.1-1.86-12.05-3.21.26-1.37,1.87-2.34,3.12-3.48,3.67.33,7.47,2.2,10.95,2.23,1.52-4.69,3.76-9.79,4.93-14.56,2.16-8.79,3.85-15.24,5.13-24.41.74-5.34,2.43-23.28,1.54-26.94-3.4-.34-4.74.83-4.71-2.48,0-.7.08-1.16.21-1.83,1.42-.08,3.57.2,4.15-.38,1.2-2.17-.78-15.23-1.07-18.34-1.24-13.15-7.37-34.25-12.77-46.35-2.38-.07-5.91,3.13-9.03,3.12-.37-7.2,3.38-4.15,6.73-7.48-.29-3.11-11.32-20.69-13.61-23.57l-8.29-10.33c-1.33-1.64-7.4-8.16-9.18-9.14.27,9.88-2.53,15.29-7.48,20.79-3.21,3.56-12,10.86-16.01,12.01-.36-5.09,0-7.89-2.63-11.45-9.64-13.01-42.51-2.62-55.05,1.48l-20.24,7.29c-2.06-2.05-6.13-9.94-8.13-11.86-2.38-1.5-4.09-2.92-6.56-4.5-2-1.28-4.84-3.32-6.57-4.63l-13.08-9c-1.77.81-7.98,7.71-9.47,9.38-1.58,1.76-2.99,3.4-4.37,5.25-1.17,1.57-2.67,3.7-4,5.32-3.18,3.87-13.28,20.94-13.79,24.42l8.02,2.9.5,4.33c-3.27-.12-7.85-3.01-10.61-3.11-2.78,3.92-8.24,23.69-9.52,29.18-1.92,8.23-4.81,26.43-4.26,34.57l4.99.17-.03,4.26-4.98.09c-.67,5.52.31,13.46.63,18.9.49,8.11,3.58,24.96,6.06,32.49,1.67,5.07,3.32,9.59,4.89,14.33,4.29.28,9.57-3.4,11.7-1.42,1.39,1.3,1.93,1.7,2.08,2.85l-11.62,2.73c.06,2.58,5.29,12.45,6.72,14.91,5.2,8.97,10.79,17.86,17.65,25.35,1.71,1.87,8.77,9.75,10.67,10.5,2.74-.75,11.77-7.93,13.68-7.86l-.04,4.54c-1.17,1-3.54,2.34-5.01,3.25-.93.58-4.43,2.52-4.96,3.05.57,1.45,1.78,1.3,2.6,2.79-.34,1.36-1.65,2.21-2.74,2.75-2.12-.55-2.29-1.91-4.17-2.7-1.85.54-2.99,2.29-5.26,2.62-.58-1-1.59-1.98-2.06-2.99,1-1.37,2.91-1.49,3.68-2.89-.17-.4-4.67-4.72-5.52-5.6-10.78-11.24-19.77-24.41-26.5-38.66-.92-1.95-2.85-5.53-3.4-7.5-2.68,0-22.63,5.11-26.73,6.14-1.72.43-7.28,1.5-8.47,2.14.09,2.39,11.21,17.78,13.37,20.3,5.8,6.78,6.72,8.48,14.03,15.81l1.94,2.15Z"/>
      <path class="cls-2" d="M334.75,312.02c1.44,2.61,3.04,11.15,2.94,15.07-.21,8.5-6.79,9.15-12.7-1.18-2.02-3.53-2.21-3.04.51-5.51,1.59-1.45,7.91-7.96,9.26-8.38h0ZM67.96,322.58c-.79,3.23-8.35,15.02-12.78,9.65-3.16-3.83-.68-16.64,1.42-20.42,1.91,1.44,3.55,3.26,5.7,5.27,1.59,1.49,4.52,4.03,5.66,5.5h0ZM245.14,28.92c2.78-4.59,12.77-8.02,13.89-8.98-1.53-2.94-9.82-8.98-13.77-10.34-12.03-4.12-20.78,4.63-29.27,4.92-19.79.67-17.22-20.88-66.68-.88-5.49,2.22-11.29,4.92-17.29,6.79-11.14,3.47-10.3,2.53-20.95,3.16l9.25,14.42c-2.23.29-13.9,7.45-16.48,9.09-5.57,3.53-10.39,7.15-15.07,10.9-16.83,13.5-24.93,24.25-36.38,40.99-6.62,9.68-12.77,23.72-16.81,35.14-2.36,6.67-3.99,13.5-5.44,20.59-7.91,38.8-1.12,74.86,15.05,107.56,1.25,2.52,2.97,5.78,4.55,8.35,1.73,2.81,3.36,5.24,5.13,8,3.13,4.88,7.65,10.79,11.16,14.84,5.04,5.81,8.94,9.27,12.57,13.37-1.35,3.01-2.56,4.45-2.85,8.68-.43,6.33-1.61,13.26-4.26,18.89-.62,1.33-1.27,2.45-2.06,3.7-.71,1.14-2.03,2.51-2.31,3.41l28.14,18.02c1.78,1.04,3.55,1.96,6.14.9,1.55-.63,3.58-2.34,4.23-3.52-1.1-1.44-9.48-6.43-11.74-7.9-1.94-1.26-10.84-6.77-11.64-7.83.95-2.29,6.11-7.52,8.2-9.67l8.4-9.1c.11,1.14,2.51,2.23,3.44,2.82l8.17,4.99c1.26.72,2.92,2.06,4.28,2.32-2.35,1.81-8.44,5.54-9.8,7.45l36.92,34.62c1.45-.14,9.76-3.94,11.94-4.78,4.07-1.57,8.16-2.86,12.67-4.04,9.3-2.43,18.74-3.67,29.3-3.73,16.55-.1,27.95,2.03,42.42,7.64,2.22.86,9.72,4.68,11.5,4.91,2.02-1.14,7.2-6.46,9.46-8.56,2.52-2.34,26.6-24.63,27.72-26.15-1.56-2.35-9.54-6.76-10.85-8.36,1.91-1.56,15.12-8.9,15.66-10.08,1.44,1.38,2.96,3.61,4.23,4.96,2.93,3.13,12.09,12.03,13.13,14.77-1.32,1.84-21.81,13.68-23.42,15.73,1.52,2.77,5.65,5.47,10.37,2.65,3.12-1.87,27.05-16.93,28.15-18.05-.84-2.32-5.12-5.05-7.49-17.19-1.8-9.23.02-12.72-5.56-19.29l.42-.22c2.47-1.69,11.1-11.99,12.88-14.09,5.04-5.96,10.03-13.26,14.07-20.27l7.22-13.63c16.5-34.74,20.53-79.23,9.04-116.27-1.1-3.54-2.07-7.03-3.38-10.43-2.86-7.41-4.6-11.81-8.48-19.1-3.32-6.25-6.1-11.48-10.25-17.37-17.23-24.43-39.31-44.45-67.06-57.14-3.14-1.44-17.39-7.73-20.4-7.58h0ZM0,174.38v15.38c.06.13,1.37,14.46,1.56,16.06.61,5.15,1.44,10.02,2.54,14.81,3.41,14.89,11.23,37.34,19.58,50.33,1.19,1.85,2.21,3.58,3.36,5.62.96,1.69,2.46,3.61,3.46,5.2,4.33,6.93,10.08,13.61,15.28,19.72,5.75,6.75,4.24,2.33,3.16,11.88-3.65,32.23,3.57,29.72,15.41,35.64,5.77,2.89,17.36,8.17,22.86,11.83,1.49.99,9.99,6.16,10.99,6.37,2.95-1.97,9.97-9.87,12.2-10.68,3.53,1.85,20.18,19.58,23.85,24.02,1.09,1.32,1.69,2.66,3.11,3.67.69.18,8.29-5.42,11.69-6.93,4.62-2.05,8.27-3.77,13.51-5.15,11.1-2.92,20.96-3.98,33.2-3.95,10.3.02,23.73,1.78,32.5,4.69,4.83,1.6,9.22,3.01,13.44,5.12,2.17,1.08,4.12,1.85,6.22,3.11,1.26.75,4.74,2.96,5.92,3.34,1.06-.67,5.39-6.38,6.05-7.35,1.75-2.56,4.1-5.19,6-7.19,1.71-1.8,12.12-13.1,13.94-12.81.71.11,9.37,8.76,11.23,10.01,1.39-.3,5.16-2.94,6.46-3.73l20.01-10.81c4.88-2.35,9.2-4.38,14.02-6.49,2.65-1.16,4.4-2.02,6.11-4.18,5.43-6.84,4.05-17.77,3.13-26.07-.32-2.86-1.24-6.2-1.49-8.75-.17-1.69,1.04-2.27,1.88-3.08,4.9-4.69,16.17-19.61,19.84-25.73,1.22-2.04,2.66-4.28,3.89-6.35,9.07-15.22,16.49-33.96,20.2-51.33,5.73-26.85,4.96-47.48.06-73.95-2.16-11.68-5.94-21.39-9.84-31.27l-6.63-13.9c-2.67-4.49-4.62-8.69-7.37-12.89-.63-.97-1.39-1.83-2.11-2.97l-6.4-9.02c-3.08-3.95-5.82-7.38-9.1-11.14-12.21-13.99-28.87-27.52-44.79-37.03-22.93-13.7-51.13-24.05-77.76-27.13-19.2-2.22-38.66-1.39-58.18.92-18.29,2.63-35.2,8.09-51.86,15.26-5.22,2.25-20.32,10.14-25.44,13.73-1.22.86-2.16,1.51-3.28,2.17-7,4.14-18.58,13.8-24.89,19.7-14.34,13.41-29.92,33.15-38.49,51.05-7.58,15.82-13.85,32.56-16.57,50.52-.44,2.87-.92,6.83-1.5,9.65-.46,2.21-.17,7.21-.78,9.56-.02.07-.08.3-.1.25-.01-.04-.06.17-.1.25Z"/>
      <path class="cls-9" d="M184.53,41.45c1.08-1.52,2.8-7.9,3.57-10.25.85-2.61,2.2-7.55,3.4-9.87,1.05,1.97,2.66,7.51,3.45,10.01,1.08,3.42,2.17,6.83,3.35,10.14l21.52.05c-.46.91-15.55,11.42-17.25,12.45.26,2.96,6.11,16.9,6.4,20.19-2.26-.97-6.37-4.39-8.74-6.07-2.62-1.85-6.04-4.59-8.63-6.02-1.62.59-7.18,4.9-8.87,6.1-1.97,1.4-6.98,5.33-8.74,5.99.86-4.2,6.4-17.58,6.31-20.21-2.81-1.92-15.58-10.78-17.2-12.5l21.44-.02h0ZM120.33,38l2.27,3.47,10.61,15.91,1.85,3.12,10.7,16.28c1.05,1.2,5.96,8.68,6.58,10.16,2.01,1.92,6.07,9.81,8.13,11.86l20.24-7.29c12.53-4.1,45.41-14.49,55.05-1.48,2.64,3.56,2.27,6.36,2.63,11.45,4.01-1.15,12.8-8.45,16.01-12.01,4.96-5.5,7.75-10.91,7.48-20.79-.93-4.67-1.12-5.16-3.12-8.63l-5.8-5.52c-2.06-1.78-3.7-3.28-5.66-5.25-3.87-3.89-7.56-11.81-4.57-16.2.36-1.73,1.39-3.11,2.41-4.17,2.78-4.59,12.77-8.02,13.89-8.98-1.53-2.94-9.82-8.98-13.77-10.34-12.03-4.12-20.78,4.63-29.27,4.92-19.79.67-17.22-20.88-66.68-.88-5.49,2.22-11.29,4.92-17.29,6.79-11.14,3.47-10.3,2.53-20.95,3.16l9.25,14.42Z"/>
      <path class="cls-11" d="M181.47,114.09l-11,2.18c-1.07-1.47-10.37-12.55-11.28-13.13l-11.88,5.02,2.35,16.39-8.72,6.28-15.05-8.11c-1.08.73-8.66,8.57-9.24,9.55,1.32,2.16,3.04,4.36,4.57,6.53,1.06,1.5,4.18,5.44,4.71,6.95-.82,1.76-4.47,7.43-5.57,8.46l-17.64-1.97c-1.02,1.56-4.1,11.16-4.22,12.17l13.48,8.68c.13,2.21-1.06,7.84-1.56,10.2l-17.57,4.87c-.02,2.22-.36,11.21.32,12.38,1.64,1.23,14.42,2.49,17.7,3.48,2.64,11.96,2.53,9.96-.88,12.56-1.72,1.31-9.02,6.71-9.93,7.8l4.21,11.85,17.02-3.12c1.5,1.52,5.92,7.39,6.94,9.56-.78,2.03-2.73,4.89-3.85,6.93-1.14,2.06-3.02,4.91-3.81,7.19.57,1.17,7.44,8.32,8.77,9.1,2.1-.93,5.41-3.3,7.41-4.58,1.79-1.15,5.8-4.05,7.67-4.67l11.54,6.83c3.31-2.52,2.54-5.13,2.42-8.93-.87-.81-3.32-1.99-4.49-2.72-25.88-16.13-40.63-46.32-31.51-78.04,8.05-28,35.81-51.6,71.79-51.6,40.2,0,74.58,30.58,74.53,70.42-.04,29.16-17.5,49.01-34.58,59.48l-.08,7.26c5,1.55,3.92,1.24,7.72-1.18,2.65-1.69,5.06-3.83,6.7-3.05,2.98,1.43,12.1,7.03,14.4,7.49,1.23-1.01,6.76-7.07,7.3-8.05-1.73-3.66-4.86-8.33-6.94-11.91-1.81-3.1-1.04-2.52,1.1-5.57,1.18-1.68,2.99-4.05,3.88-5.71l17.11,1.83,5-10.37c-.55-.65-.14-.2-.77-.73-.36-.3-.63-.46-.93-.68l-5.48-3.81c-2.42-1.74-4.92-3.22-7.14-5.08-.13-1.6,1.6-10.24,2.12-12.02l15.6-5.18v-12.93s-15.71-2.49-15.71-2.49c-.03-.19-.11-.37-.13-.33l-1.44-5.35c-.43-1.89-1.12-4.23-1.28-5.99,1.1-1.2,11.37-8.01,12.91-8.82-.44-2.54-4.16-8.67-5.33-11.39-4.44-.06-11.32,2.73-16.03,2.93-1.31-1.24-6.11-7.65-7.11-9.36.49-1.66,2.91-5.37,3.9-7.05.98-1.66,3.33-5.38,3.87-7.07-1.14-1.3-8.57-7.61-9.65-8-3.98,2.15-8.29,4.94-12.15,7.42-2.1,1.35-1.63,1-6.18-1.66-1.71-1-4.58-2.8-6.37-3.55l2.83-15.24-12.71-4.92-10.36,13.3-11.49-1.52-3.94-15.59-11.24-.06c-1.9.08-1.38.1-2.29,4.73-.75,3.85-1.47,7.87-2.35,11.73Z"/>
      <path class="cls-12" d="M150.14,346.26c1.66-.8,6.39-3.32,8.19-3.54,7.28,13.4-13.05,21.48-19.43,17.47-2.39-1.5-4.26-5.79-5.49-8.95-3.42-8.77-4.95-14.43,3.41-19.55,2.6-1.6,6.81-3.55,10.82-3.32,3.77.22,7.1,3.59,7.6,6.73-1.06.83-6.57,3.4-7.92,3.54-1.12-1.06-1.32-2.93-3.02-3.44-1.88-.56-3.85.8-4.44,1.75-1.36,2.17,1.25,7.88,2.07,9.96,1.01,2.57,2.56,7.74,5.37,7.69,1.69-.03,3.46-1.42,3.78-2.58.52-1.88-.71-3.93-.93-5.75h0ZM252.62,360.5c-1.8-.1-7.32-2.29-9.2-3.06l-1.75-19.66c-.78,4.59-3,13.41-4.52,17.23-1.29-.06-6.48-1.91-7.65-2.57-.03-2.05,7.21-24.58,8.27-28.57,1.77.19,7.76,2.43,9.24,3.25l1.81,19.64c.87-2.46,1.47-6.07,2.09-8.81.65-2.85,1.48-5.72,2.43-8.47,1.69.03,5.59,1.89,7.56,2.44.06,1.92-7.23,25.76-8.3,28.6h0ZM165.59,322.58c-.3,3.51,1.44,8.63.86,11.7l-3.16.55.68,4.84,3.39-.23,1.58,12.87c3.49.02,15.25-1.98,18.16-3.09,6.32-2.41,6.2-7.43,5.29-14.91-.8-6.57-1.2-12.66-7.55-13.69-2.84-.46-17.41,1.01-19.25,1.96h0ZM200.25,318.75c1.65-.16,8.06.51,9.32.89.28.45.14-.04.41.91l2.33,21.14c.56-2.88,2.13-7.59,3.1-10.4,1.16-3.4,2.31-7.11,3.49-10.56l9.46,1.03c0,.97-10.73,27.43-11.71,28.8-2.2.19-8.66-.66-10.77-1.17l-5.6-30.64h0ZM119.02,329.68l-4.28,2.87c-2.35,1.81-8.44,5.54-9.8,7.45l36.92,34.62c1.45-.14,9.76-3.94,11.94-4.78,4.07-1.57,8.16-2.86,12.67-4.04,9.3-2.43,18.74-3.67,29.3-3.73,16.55-.1,27.95,2.03,42.42,7.64,2.22.86,9.72,4.68,11.5,4.91,2.02-1.14,7.2-6.46,9.46-8.56,2.52-2.34,26.6-24.63,27.72-26.15-1.56-2.35-9.54-6.76-10.85-8.36-1.87-.58-3.58-2.36-5.23-3.13-2.71-1.34-5.28-2.9-8.13-4.38-7.57-3.94-17.63-7.58-26.06-9.9-36.23-9.98-76.65-6.14-109.85,11.31l-7.73,4.23Z"/>
      <path class="cls-1" d="M124.2,190.68c0,12.21,1.84,19.14,6.32,29.35.39.9.98,1.76,1.36,2.46,3.04,5.58,7.94,12.11,12.54,16.01,3.65,3.1,4.46,4.18,8.93,7.11,3.17,2.08,6.92,4.17,10.55,5.8,6.16,2.75,18.98,6.55,27.15,5.81,1.06-14.54-3.11-33.8-9.77-42.75-7.33-9.87-13.69-12.61-24.83-14.75-4.28-.82-7.83-.43-12.21-.86l-.15-12.63c2.08-.25,6.22.57,7.6-.44.76-.74.32-21.95.29-22.58l-7.75-.24-.14-12.01c2.13-.62,4.59-.64,6.85-1.24,10.42-2.78,13.71-8.91,14.65-9.31l54.56-.03,2.29,2.45c5.97,5.55,21.47,8.98,27.03,8.16-.08-1.3,0-.48-.33-.86l-2.66-2.47c-.99-1.01-2.31-2.37-3.39-3.35-8.44-7.63-14.64-10.73-25.43-14.98-1.68-.66-3.71-.89-5.44-1.41-2.05-.62-2.84-.91-5.54-1.21-5.34-.58-5.44-1.13-12.21-1.14-21.11-.04-42.28,9.55-55.4,25.76-8.6,10.62-14.88,24.58-14.88,39.35Z"/>
      <path class="cls-10" d="M50.06,260.96c-3.58-3.96-11.44-27.06-13.18-33.62-2.69-10.15-6.17-31.43-5.03-41.78l41.91.03,1.01,18.86c1.22,12.34,3.05,21.26,6.13,33.02l3.58,11.21c.57,1.31.98,2.42,1,4.03-5.81,1.37-11.65,2.76-17.66,4.23-2.92.71-5.58,1.46-8.68,2.12-2.49.53-6.73,1.96-9.07,1.9h0ZM32.03,181.09c-.56-13.69,3.68-31.14,7.02-42.55,1.52-5.17,6.16-17.22,8.75-22.01.72-1.33,1.43-2.82,2.06-4.06,1.5-2.95,2.87-5.22,4.37-7.79,2.15-.07,13.61,4.17,16.86,5.26,5.53,1.86,11.1,3.77,16.63,5.55-.02,2.19-1.78,5.48-2.52,7.63-2.66,7.74-2.77,6.94-4.84,15.08-2.09,8.24-3.89,15.86-4.89,24.55-1,8.68-.84,10.18-1.42,18.29l-42.02.05h0ZM57.29,100.62c6.18,1.74,29.7,10.73,32.57,10.79,1.84-2.44,8.04-17.45,18.25-29.89l13.84-15.36c-1.09-1.36-2.81-2.31-4.4-3.32-2.49-1.58-13.27-9.57-14.21-9.64-2.83.94-10.65,7.57-13.43,9.78-7.91,6.3-16.89,15.73-23.06,23.48l-7.37,9.93c-.76,1.15-2.02,2.76-2.17,4.23h0ZM78.6,306.83c1.08-1.02,2.22-2.12,3.24-3.27l-1.94-2.15c-7.31-7.33-8.23-9.03-14.03-15.81-2.16-2.52-13.28-17.92-13.37-20.3,1.2-.63,6.75-1.7,8.47-2.14,4.1-1.03,24.04-6.14,26.73-6.14.56,1.97,2.48,5.54,3.4,7.5,6.73,14.25,15.72,27.42,26.5,38.66.85.88,5.34,5.2,5.52,5.6-.77,1.4-2.68,1.52-3.68,2.89.48,1.01,1.48,1.98,2.06,2.99,2.27-.32,3.41-2.08,5.26-2.62,1.88.79,2.05,2.15,4.17,2.7,1.09-.53,2.4-1.38,2.74-2.75-.82-1.49-2.03-1.34-2.6-2.79.53-.53,4.03-2.47,4.96-3.05,1.47-.91,3.84-2.25,5.01-3.25l.04-4.54c-1.91-.07-10.94,7.11-13.68,7.86-1.9-.75-8.96-8.64-10.67-10.5-6.87-7.48-12.45-16.37-17.65-25.35-1.43-2.46-6.66-12.33-6.72-14.91l11.62-2.73c-.15-1.15-.69-1.55-2.08-2.85-2.13-1.99-7.41,1.7-11.7,1.42-1.56-4.74-3.22-9.27-4.89-14.33-2.48-7.53-5.57-24.38-6.06-32.49-.33-5.44-1.3-13.38-.63-18.9l4.98-.09.03-4.26-4.99-.17c-.55-8.14,2.34-26.34,4.26-34.57,1.28-5.49,6.74-25.26,9.52-29.18,2.75.09,7.34,2.99,10.61,3.11l-.5-4.33-8.02-2.9c.51-3.48,10.61-20.55,13.79-24.42,1.32-1.61,2.83-3.74,4-5.32,1.38-1.85,2.79-3.49,4.37-5.25,1.49-1.67,7.7-8.57,9.47-9.38l13.08,9c1.73,1.31,4.57,3.35,6.57,4.63,2.46,1.58,4.17,2.99,6.56,4.5-.61-1.48-5.52-8.96-6.58-10.16-1.07-.32-6.51-4.23-8.3-5.58-1.82-1.38-7.04-4.43-7.76-5.68.64-1,3.2-2.77,4.33-3.66,1.09-.86.95-.28,1.04-1.36l-1.85-3.12c-2.57.33-5.08,4.42-7.73,5.1-1.25.03-17.63-12.03-17.64-12.05.66-1.5,10.97-6.58,13.17-7.68,1.03-.51,1.22-.4,1.59-1.28l-2.27-3.47c-2.23.29-13.9,7.45-16.48,9.09-5.57,3.53-10.39,7.15-15.07,10.9-16.83,13.5-24.93,24.25-36.38,40.99-6.62,9.68-12.77,23.72-16.81,35.14-2.36,6.67-3.99,13.5-5.44,20.59-7.91,38.8-1.12,74.86,15.05,107.56,1.25,2.52,2.97,5.78,4.55,8.35,1.73,2.81,3.36,5.24,5.13,8,3.13,4.88,7.65,10.79,11.16,14.84,5.04,5.81,8.94,9.27,12.57,13.37Z"/>
      <path class="cls-10" d="M338.58,260.91c-2.34.35-15.29-3.07-18.26-3.85-4.42-1.17-14.42-3.21-17.77-4.35,0-1.31,3.89-12.96,4.59-15.2,2.72-8.72,5.59-23.73,6.14-33.02.1-1.73.74-19.41,1.16-18.67l4.57-.27c8.71,0,32.13-.4,37.45.11.9,6.66-.78,15.62-1.18,21.7-.82,12.53-5.51,25.86-9.47,37.36-.95,2.74-2.2,5.85-3.39,8.23-.66,1.32-1.32,2.5-1.9,3.81-.49,1.11-1.25,3.03-1.94,4.15h0ZM299.79,113.66l15.43-6.71c1.76-.9,14.45-6.59,15.65-6.72,5.19,4.75,14.7,27.97,17.38,35.48,2.34,6.55,4.13,14.26,5.54,21.09,1.04,5.05,2.74,19.16,2.49,24.3h-42.11c-.74-6.06-.94-12.69-1.66-18.61-1.77-14.52-5.36-27.62-10.3-41.01-.59-1.6-2.85-6.19-2.43-7.81h0ZM275.06,75.47c5.71,7.24,7.02,8.76,12.04,16.18,4.95,7.33,8.04,14.76,10.08,17.87,1.45.17,3.26-.79,4.4-1.4,4.29-2.3,25.04-10.38,26.67-12.11-1.47-3.75-14.98-18.83-17.59-21.5-3.23-3.32-17.46-16.65-21.18-18.01-1.11.67-6.01,7.3-7.43,9.27-1.27,1.77-6.73,8.62-6.98,9.7h0ZM242.73,33.09c3.58.25,19.57,7.15,22.87,8.83,6.91,3.51,14.09,7.44,19.8,11.59-.41,1.65-2.27,3.6-3.43,5.14-1.29,1.72-9.27,12.59-10.15,13.17-1.57-1.2-11.93-11.99-13.07-11.77,2,3.47,2.19,3.96,3.12,8.63,1.78.98,7.85,7.51,9.18,9.14l8.29,10.33c2.29,2.88,13.32,20.46,13.61,23.57-3.35,3.33-7.1.28-6.73,7.48,3.12,0,6.65-3.2,9.03-3.12,5.4,12.11,11.54,33.2,12.77,46.35.29,3.11,2.28,16.17,1.07,18.34-.57.58-2.73.3-4.15.38-.13.67-.2,1.13-.21,1.83-.03,3.32,1.31,2.14,4.71,2.48.89,3.65-.79,21.6-1.54,26.94-1.28,9.17-2.97,15.62-5.13,24.41-1.17,4.77-3.4,9.86-4.93,14.56-3.48-.03-7.27-1.89-10.95-2.23-1.25,1.13-2.85,2.11-3.12,3.48,2.95,1.35,9.72,1.87,12.05,3.21-.35,2.35-5.5,12.16-6.78,14.36-6.38,10.97-9.24,15.39-17.36,25-1.95,2.31-8.64,9.72-10.79,10.75-3.04-.43-10.92-7.43-13.44-7.42-.44,8.08,2.86,4.6,9.54,10.59-.5,1.47-1.85,1.56-2.82,2.89.35,1.29,2.68,2.76,3.19,2.73,1.64-.67,2.58-1.93,3.85-2.73,1.97.22,3.15,2.07,5.45,2.68,1.12-.71,2.03-2.02,2.31-3.39l-3.93-2.4c.38-1.06,4.38-4.7,5.37-5.65,1.78-1.73,3.56-3.9,5.17-5.76,3.19-3.69,7-8.36,9.52-12.32l6.31-10.01c2.12-3.56,8.78-17.76,9.28-18.25l35.02,8.46c-.96,5.14-15.41,23.34-20.22,28.71-1.35,1.5-2.3,2.66-3.82,4.21-.77.79-3.64,3.41-4.05,4.31,1.4.67,2.39,1.57,3.44,2.46l.42-.22c2.47-1.69,11.1-11.99,12.88-14.09,5.04-5.96,10.03-13.26,14.07-20.27l7.22-13.63c16.5-34.74,20.53-79.23,9.04-116.27-1.1-3.54-2.07-7.03-3.38-10.43-2.86-7.41-4.6-11.81-8.48-19.1-3.32-6.25-6.1-11.48-10.25-17.37-17.23-24.43-39.31-44.45-67.06-57.14-3.14-1.44-17.39-7.73-20.4-7.58-1.02,1.06-2.05,2.43-2.41,4.17Z"/>
      <path class="cls-2" d="M299.79,113.66c-.42,1.61,1.84,6.21,2.43,7.81,4.94,13.39,8.53,26.49,10.3,41.01.72,5.93.92,12.56,1.66,18.63h42.11c.25-5.15-1.45-19.26-2.49-24.31-1.41-6.83-3.2-14.54-5.54-21.09-2.68-7.51-12.19-30.73-17.38-35.48-1.2.13-13.9,5.82-15.65,6.72l-15.43,6.71Z"/>
      <path class="cls-2" d="M338.58,260.91c.68-1.12,1.45-3.04,1.94-4.15.58-1.31,1.24-2.48,1.9-3.81,1.19-2.38,2.44-5.49,3.39-8.23,3.96-11.49,8.66-24.82,9.47-37.36.4-6.08,2.08-15.04,1.18-21.7-5.32-.51-28.74-.11-37.45-.11l-4.57.27c-.42-.75-1.06,16.94-1.16,18.67-.55,9.29-3.42,24.3-6.14,33.02-.7,2.24-4.59,13.89-4.59,15.2,3.35,1.14,13.35,3.19,17.77,4.35,2.97.78,15.93,4.2,18.26,3.85Z"/>
      <path class="cls-2" d="M50.06,260.96c2.35.06,6.58-1.37,9.07-1.9,3.11-.66,5.77-1.41,8.68-2.12,6.01-1.47,11.85-2.86,17.66-4.23-.03-1.61-.44-2.72-1-4.03l-3.58-11.21c-3.08-11.77-4.91-20.68-6.13-33.02l-1.01-18.86-41.91-.03c-1.15,10.35,2.34,31.63,5.03,41.78,1.74,6.56,9.6,29.66,13.18,33.62Z"/>
      <path class="cls-2" d="M32.03,181.09l42.02-.05c.58-8.11.43-9.61,1.42-18.29,1-8.69,2.8-16.31,4.89-24.55,2.07-8.14,2.18-7.34,4.84-15.08.74-2.14,2.5-5.43,2.52-7.63-5.53-1.78-11.1-3.69-16.63-5.55-3.24-1.09-14.71-5.33-16.86-5.26-1.5,2.57-2.87,4.84-4.37,7.79-.63,1.24-1.34,2.73-2.06,4.06-2.59,4.8-7.23,16.85-8.75,22.01-3.35,11.4-7.58,28.86-7.02,42.55Z"/>
      <path class="cls-11" d="M199.87,198.43l11.83-.03.03,38.32-11.71.08-.15-38.37h0ZM170.54,155.08l7.28-.04,20.11.12-.03,33.66-20.05-.04h-6.52s-16.55.08-16.55.08c13.78,1.98,36.6,10.38,39.55,26.07l1.91.44.06,27.43,3.12.06.19,8.18,12.34-2.76.16-5.19,3.45-.07v-45.92s23.23-7.87,23.23-7.87l-28.38-.27-.08-34.05,27.75-.13-23.95-7.04-.16-3.2c-3.19-.47-30.19-.13-35.84-.13-10.91,0-5.68-.86-14.1,3.95-1.87,1.07-3.88,2.07-6,2.98-4.8,2.07-5.77,1.36-5.49,3.63l18.01.12Z"/>
      <path class="cls-2" d="M57.29,100.62c6.18,1.74,29.7,10.73,32.57,10.79,1.84-2.44,8.04-17.45,18.25-29.89l13.84-15.36c-1.09-1.36-2.81-2.31-4.4-3.32-2.49-1.58-13.27-9.57-14.21-9.64-2.83.94-10.65,7.57-13.43,9.78-7.91,6.3-16.89,15.73-23.06,23.48l-7.37,9.93c-.76,1.15-2.02,2.76-2.17,4.23Z"/>
      <path class="cls-1" d="M221.46,219.56l-.08,30.38-2.74.23-.09,3.7c3.62.41,15.03-6.66,17.74-8.54,17.14-11.9,28.62-31.99,28.14-54.97l-.09-2.14c-3.99-.04-22.93,8.14-26.63,10.39-5.84,3.55-11.72,6.77-14.76,13.2-1.42,2.99-1.52,3.71-1.51,7.75Z"/>
      <path class="cls-2" d="M275.06,75.47c5.71,7.24,7.02,8.76,12.04,16.18,4.95,7.33,8.04,14.76,10.08,17.87,1.45.17,3.26-.79,4.4-1.4,4.29-2.3,25.04-10.38,26.67-12.11-1.47-3.75-14.98-18.83-17.59-21.5-3.23-3.32-17.46-16.65-21.18-18.01-1.11.67-6.01,7.3-7.43,9.27-1.27,1.77-6.73,8.62-6.98,9.7Z"/>
      <path class="cls-12" d="M289.5,317.69l2.17,3.77c1.44,1.38,2.96,3.61,4.23,4.96,2.93,3.13,12.09,12.03,13.13,14.77-1.32,1.84-21.81,13.68-23.42,15.73,1.52,2.77,5.65,5.47,10.37,2.65,3.12-1.87,27.05-16.93,28.15-18.05-.84-2.32-5.12-5.05-7.49-17.19-1.8-9.23.02-12.72-5.56-19.29-1.05-.88-2.04-1.79-3.44-2.46-2.88-2.5-10.61-3.99-15.21-.12-5.26,4.42-3.99,10.46-2.93,15.24Z"/>
      <path class="cls-12" d="M81.84,303.57c-1.02,1.14-2.16,2.24-3.24,3.27-1.35,3.01-2.56,4.45-2.85,8.68-.43,6.33-1.61,13.26-4.26,18.89-.62,1.33-1.27,2.45-2.06,3.7-.71,1.14-2.03,2.51-2.31,3.41l28.14,18.02c1.78,1.04,3.55,1.96,6.14.9,1.55-.63,3.58-2.34,4.23-3.52-1.1-1.44-9.48-6.43-11.74-7.9-1.94-1.26-10.84-6.77-11.64-7.83.95-2.29,6.11-7.52,8.2-9.67l8.4-9.1c.68-1.06,1.37-2.21,2.27-3.36,1.15-3.26,2.11-5.04,1.53-9.61-.38-3.01-2.3-5.88-4-7.21-5.79-4.54-12.05-1.33-16.81,1.33Z"/>
      <path class="cls-3" d="M184.53,41.45l-21.44.02c1.62,1.72,14.39,10.57,17.2,12.5.1,2.63-5.45,16.01-6.31,20.21,1.76-.66,6.77-4.59,8.74-5.99,1.69-1.21,7.25-5.52,8.87-6.1,2.59,1.43,6.01,4.17,8.63,6.02,2.37,1.67,6.48,5.1,8.74,6.07-.3-3.3-6.14-17.24-6.4-20.19,1.7-1.03,16.79-11.54,17.25-12.45l-21.52-.05c-1.18-3.31-2.27-6.72-3.35-10.14-.8-2.51-2.4-8.05-3.45-10.01-1.2,2.32-2.54,7.26-3.4,9.87-.76,2.34-2.48,8.73-3.57,10.25Z"/>
      <path class="cls-4" d="M198.09,293.31c1.73.03,3.91-.93,5.88-1.33,4.59-.94,12.17-1.11,16.63,0,1.25.31,6.05,1.59,6.8,1.56.52-7.32.15-27.93.09-37.3-2.4-.12-9.31,4.38-20.16,4.76-2.23.08-6.01-.3-7.67.67-2.29,1.34-1.62,3.61-1.63,6.69-.01,5.84-.33,21.06.06,24.97Z"/>
      <path class="cls-4" d="M163.66,293.38c1.89,0,4.98-1.01,7.01-1.39,5.78-1.08,9.59-1.09,15.41-.15,1.77.29,5.54,1.55,7.03,1.48l.03-30.11c-4.27-3.1-6.64-.88-15.57-2.37-9.09-1.52-8.8-2.76-13.81-4.02l-.1,36.56Z"/>
      <path class="cls-1" d="M260.92,172.3c.4-1.3-3.82-10.33-4.44-10.82-1.63-.49-.69-1.39-3.24-1.42l-28.71.14-.23,23.53,39.01-.04c-.33-2.2-.67-3.75-1.04-5.83-.36-2.05-1.2-3.72-1.36-5.56Z"/>
      <path class="cls-7" d="M152.72,271.49c-.1,4.54-.39,32.37.3,33.16l9-1.67c3.33-.77,6-1.32,9.59-1.92,4.96-.83,12.88-1.74,17.43,1.29,1.34.89.45.15,1.27,1.47l9.63.14c3.97-4.95,13.78-3.66,19.09-2.79,3.69.6,6.51.95,9.93,2,1.89.58,7.84,2.44,9.49,2.4l.03-33.38c-1.01-.58-4.78-1.98-6.16-2,.01,8.65.24,19.94,0,28.27-4.71.15-16.24-5.39-30.29-1.73-3.23.84-5.25,2.98-6.9,3.29-.82-.39-2.12-1.59-2.97-2.06-1.19-.67-2.63-1.09-3.99-1.49-10.64-3.13-27.03,2.05-29.15,1.59l-.07-28.22c-1.98.08-4.76,1.03-6.23,1.65Z"/>
      <path class="cls-4" d="M172.72,165.94c7.21-2.53,12.22,8.78,3.82,11.94-7.36,2.77-12.49-8.9-3.82-11.94h0ZM171.32,188.77h6.52c.8-.5,1.81-.63,2.75-1.04,14.82-6.47,13.33-24.2,2.43-30.52-1.28-.74-4.59-1.66-5.2-2.17l-7.28.04-2.41,1.2c-9.28,3.92-12.66,13.95-9.15,22.4,3.36,8.1,11.39,9.51,12.35,10.09Z"/>
      <path class="cls-2" d="M258.76,60.06c1.14-.22,11.5,10.57,13.07,11.77.88-.57,8.86-11.45,10.15-13.17,1.15-1.54,3.01-3.5,3.43-5.14-5.71-4.15-12.88-8.08-19.8-11.59-3.31-1.68-19.29-8.59-22.87-8.83-2.99,4.39.7,12.31,4.57,16.2,1.96,1.97,3.6,3.47,5.66,5.25l5.8,5.52Z"/>
      <path class="cls-8" d="M252.62,360.5c1.07-2.84,8.35-26.68,8.3-28.6-1.98-.55-5.88-2.41-7.56-2.44-.95,2.76-1.78,5.62-2.43,8.47-.62,2.73-1.22,6.34-2.09,8.81l-1.81-19.64c-1.48-.82-7.48-3.06-9.24-3.25-1.06,4-8.31,26.53-8.27,28.57,1.18.66,6.37,2.51,7.65,2.57,1.52-3.82,3.74-12.63,4.52-17.23l1.75,19.66c1.88.77,7.4,2.96,9.2,3.06Z"/>
      <path class="cls-14" d="M176.45,338.31c1.05-.63,2.25-.61,3.74-.81.24-1.29,0-3.8-.48-5l-4.08.29c-.84-6.55-1.67-6.45,2.81-6.45,4.33,0,4.23,2.21,4.69,5.94.3,2.46,1.08,7.65.78,9.88-.37,2.77-3.74,3.59-6.67,3.42l-.79-7.27h0ZM165.59,322.58c-.3,3.51,1.44,8.63.86,11.7l-3.16.55.68,4.84,3.39-.23,1.58,12.87c3.49.02,15.25-1.98,18.16-3.09,6.32-2.41,6.2-7.43,5.29-14.91-.8-6.57-1.2-12.66-7.55-13.69-2.84-.46-17.41,1.01-19.25,1.96Z"/>
      <path class="cls-8" d="M150.14,346.26c.22,1.82,1.45,3.87.93,5.75-.32,1.17-2.09,2.55-3.78,2.58-2.8.05-4.36-5.12-5.37-7.69-.82-2.08-3.42-7.79-2.07-9.96.59-.95,2.56-2.31,4.44-1.75,1.7.51,1.9,2.39,3.02,3.44,1.36-.14,6.86-2.71,7.92-3.54-.5-3.14-3.83-6.52-7.6-6.73-4.01-.23-8.21,1.72-10.82,3.32-8.36,5.13-6.83,10.78-3.41,19.55,1.23,3.17,3.11,7.45,5.49,8.95,6.37,4.01,26.7-4.07,19.43-17.47-1.8.22-6.53,2.74-8.19,3.54Z"/>
      <path class="cls-14" d="M209.57,319.64c-1.26-.38-7.66-1.05-9.32-.89l5.6,30.64c2.11.51,8.57,1.36,10.77,1.17.98-1.37,11.71-27.83,11.71-28.8l-9.46-1.03c-1.18,3.45-2.32,7.17-3.49,10.56-.96,2.81-2.53,7.52-3.1,10.4l-2.33-21.14c-.26-.95-.12-.46-.41-.91Z"/>
      <polygon class="cls-5" points="200.02 236.8 211.73 236.72 211.7 198.41 199.87 198.43 200.02 236.8"/>
      <path class="cls-14" d="M177.84,188.77l20.05.04.03-33.66-20.11-.12c.61.51,3.93,1.43,5.2,2.17,10.9,6.32,12.39,24.05-2.43,30.52-.94.41-1.95.54-2.75,1.04Z"/>
      <path class="cls-2" d="M133.21,57.38l-10.61-15.91c-.38.89-.57.77-1.59,1.28-2.2,1.1-12.51,6.18-13.17,7.68.01.02,16.39,12.08,17.64,12.05,2.65-.68,5.16-4.78,7.73-5.1Z"/>
      <path class="cls-12" d="M67.96,322.58c-1.14-1.47-4.07-4.01-5.66-5.5-2.15-2.01-3.79-3.83-5.7-5.27-2.09,3.77-4.58,16.59-1.42,20.42,4.43,5.36,11.99-6.42,12.78-9.65Z"/>
      <path class="cls-12" d="M334.75,312.02c-1.35.42-7.66,6.93-9.26,8.38-2.72,2.47-2.53,1.98-.51,5.51,5.92,10.33,12.49,9.68,12.7,1.18.1-3.92-1.5-12.47-2.94-15.07Z"/>
      <path class="cls-14" d="M172.72,165.94c-8.67,3.04-3.54,14.72,3.82,11.94,8.4-3.17,3.39-14.47-3.82-11.94Z"/>
      <path class="cls-6" d="M175.64,332.78l4.08-.29c.47,1.2.72,3.72.48,5-1.49.2-2.69.19-3.74.81l.79,7.27c2.93.17,6.3-.65,6.67-3.42.3-2.23-.48-7.42-.78-9.88-.46-3.72-.36-5.94-4.69-5.94-4.48,0-3.65-.1-2.81,6.45Z"/>
      <path class="cls-10" d="M270.78,328.42c1.65.77,3.36,2.54,5.23,3.13,1.91-1.56,15.12-8.9,15.66-10.08l-2.17-3.77c-3.78,1.95-14.9,11.03-18.72,10.73Z"/>
      <path class="cls-7" d="M98.86,322.42c.11,1.14,2.51,2.23,3.44,2.82l8.17,4.99c1.26.72,2.92,2.06,4.28,2.32l4.28-2.87c-1.72-.34-7.67-4.06-9.38-5.05l-8.34-5.43c-.02-.09-.12-.09-.18-.13-.9,1.15-1.58,2.31-2.27,3.36Z"/>
      <path class="cls-2" d="M145.75,76.78l-10.7-16.28c-.09,1.08.05.5-1.04,1.36-1.13.89-3.69,2.66-4.33,3.66.72,1.25,5.94,4.3,7.76,5.68,1.79,1.36,7.23,5.27,8.3,5.58Z"/>
      <path class="cls-13" d="M260.92,172.3c.15,1.84,1,3.51,1.36,5.56.36,2.07.7,3.63,1.04,5.83l-39.01.04.23-23.53,28.71-.14c2.55.03,1.61.92,3.24,1.42-.87-2.49-.41-1.94-6.79-1.95-4.48,0-24.14-.3-25.81.22-.43,3.14-.11,8.6-.11,11.99,0,2.41-.67,10.72.29,12.12.35.39.74.39,1.86.41l7.73-.02c8.37,0,23.13.39,30.1-.05.45-2.17-.88-6.67-1.46-9.01-.37-1.48-.17-2.4-1.37-2.9Z"/>
    </g>
  </g>
</svg>