<?xml version="1.0" encoding="UTF-8"?>
<svg xmlns="http://www.w3.org/2000/svg" xmlns:xlink="http://www.w3.org/1999/xlink" viewBox="0 0 34.73 39.02">
  <defs>
    <style>
      .cls-1 {
        fill: url(#radial-gradient-10);
      }

      .cls-2 {
        fill: url(#linear-gradient-15);
      }

      .cls-3 {
        fill: url(#linear-gradient-13);
      }

      .cls-4 {
        fill: url(#linear-gradient-20);
      }

      .cls-4, .cls-5 {
        opacity: .32;
      }

      .cls-4, .cls-5, .cls-6, .cls-7, .cls-8, .cls-9 {
        mix-blend-mode: screen;
      }

      .cls-10 {
        fill: url(#linear-gradient-2);
      }

      .cls-11 {
        mask: url(#mask-1);
      }

      .cls-12 {
        fill: url(#linear-gradient-10);
      }

      .cls-13 {
        fill: url(#linear-gradient-12);
      }

      .cls-14 {
        fill: #6a2e25;
      }

      .cls-15 {
        fill: url(#radial-gradient-14);
      }

      .cls-16 {
        mask: url(#mask);
      }

      .cls-5 {
        fill: url(#linear-gradient-16);
      }

      .cls-17 {
        fill: none;
      }

      .cls-18 {
        fill: url(#linear-gradient-4);
      }

      .cls-19 {
        fill: url(#radial-gradient);
      }

      .cls-20 {
        fill: url(#radial-gradient-3);
      }

      .cls-21 {
        mask: url(#mask-2);
      }

      .cls-22 {
        fill: url(#linear-gradient-3);
      }

      .cls-23 {
        fill: url(#linear-gradient-5);
      }

      .cls-24 {
        fill: url(#radial-gradient-16);
      }

      .cls-24, .cls-25, .cls-26, .cls-27, .cls-28, .cls-29, .cls-30 {
        mix-blend-mode: multiply;
      }

      .cls-25 {
        fill: #dc988d;
      }

      .cls-25, .cls-31 {
        opacity: .55;
      }

      .cls-32 {
        isolation: isolate;
      }

      .cls-33 {
        fill: url(#linear-gradient-8);
      }

      .cls-26 {
        fill: url(#radial-gradient-5);
      }

      .cls-34 {
        fill: url(#radial-gradient-8);
      }

      .cls-35 {
        fill: url(#radial-gradient-2);
      }

      .cls-36 {
        fill: url(#linear-gradient-14);
      }

      .cls-37 {
        fill: url(#linear-gradient-17);
      }

      .cls-6 {
        fill: url(#radial-gradient-13);
      }

      .cls-38 {
        fill: url(#linear-gradient-7);
      }

      .cls-7 {
        fill: url(#radial-gradient-7);
      }

      .cls-39 {
        fill: url(#linear-gradient-9);
      }

      .cls-40 {
        fill: url(#linear-gradient-11);
      }

      .cls-41 {
        fill: url(#linear-gradient-19);
      }

      .cls-42 {
        fill: url(#linear-gradient-6);
      }

      .cls-27 {
        fill: url(#radial-gradient-12);
      }

      .cls-28 {
        fill: url(#radial-gradient-11);
      }

      .cls-28, .cls-29 {
        opacity: .75;
      }

      .cls-29 {
        fill: url(#radial-gradient-9);
      }

      .cls-43 {
        fill: url(#linear-gradient-21);
      }

      .cls-8 {
        fill: url(#radial-gradient-15);
      }

      .cls-44 {
        fill: url(#radial-gradient-6);
      }

      .cls-31 {
        fill: url(#radial-gradient-18);
        mix-blend-mode: overlay;
      }

      .cls-9 {
        fill: url(#radial-gradient-17);
      }

      .cls-30 {
        fill: url(#radial-gradient-4);
      }

      .cls-45 {
        fill: url(#linear-gradient);
      }

      .cls-46 {
        clip-path: url(#clippath);
      }

      .cls-47 {
        fill: url(#linear-gradient-18);
      }
    </style>
    <clipPath id="clippath">
      <path class="cls-17" d="M30.75,18.99s0,0,0,0c.13.06.26.12.4.17.24.09.5.16.76.18.12.01.25.02.37,0,.37-.02.72-.14,1.03-.35.5-.35.83-.88,1.06-1.44.2-.48.32-1.01.35-1.52,0,0,0,0,0,0h0c-.3-.23-.7-.37-1.08-.4-.54-.04-1.06.16-1.47.51-.52.45-.89,1.05-1.2,1.67.13-.8.22-1.61.25-2.42.26.07.53.12.81.14,0,0,0,0,0,0,0,0,0,0,0,0,.48.03.97-.07,1.36-.37.48-.36.75-.9.9-1.47.14-.51.19-1.08.13-1.61-.02-.01-.04-.01-.06-.02-.68-.33-1.53-.22-2.08.3-.58.54-.85,1.31-1.06,2.06,0-.8-.06-1.6-.15-2.39.02,0,.03,0,.05,0,.07,0,.14.01.21.02,0,0,0,0,0,0,0,0,0,0,0,0,.13,0,.26,0,.39,0,.45-.03.9-.16,1.24-.46.4-.35.61-.87.69-1.39.09-.52.06-1.1-.07-1.62,0,0-.02,0-.02,0-.6-.2-1.31-.06-1.76.38-.55.53-.73,1.35-.83,2.08,0,.06-.01.12-.02.18-.12-.76-.28-1.51-.48-2.25.02,0,.04,0,.06,0,.07,0,.14,0,.21-.01.45-.04.91-.16,1.26-.46.42-.35.61-.88.65-1.41.02-.3,0-.6-.06-.89-.04-.22-.08-.45-.17-.66,0,0,0,0-.01,0-.51-.1-1.09.05-1.47.41-.43.41-.58,1.03-.63,1.61-.02.27-.03.54-.01.8-.21-.72-.46-1.43-.73-2.13.02,0,.04,0,.06,0,.07,0,.14-.02.2-.04.12-.02.24-.06.36-.1.21-.07.4-.17.58-.3.87-.66.72-1.98.29-2.86,0,0,0,0,0,0h0c-.4-.04-.84.09-1.15.35-.33.27-.48.67-.55,1.08-.07.47-.03.95.04,1.42-.23-.56-.48-1.11-.75-1.66-.05-.1-.1-.2-.15-.3.06-.01.12-.03.18-.05.24-.07.47-.16.67-.29.45-.29.69-.78.68-1.32,0-.5-.16-1.01-.42-1.44,0,0,0,0,0,0h0c-.57,0-1.11.33-1.32.86-.2.51-.14,1.1-.02,1.61.03.11.05.22.08.34-.23-.44-.47-.88-.72-1.31,0-.04.02-.1.04-.18,0-.03.01-.06.02-.1,0-.03,0-.05.01-.08,0-.05.02-.1.02-.15,0-.01,0-.03,0-.04,0-.06.01-.11.01-.15,0,0,0,0,0-.01,0-.56-.12-.83-.42-1.17-.2-.22-.55-.33-.9-.35-.21,0-.41.02-.58.08-.07.41-.05.85.09,1.25.15.42.48.73.92.83.16.04.52.08.68.1.06.12.13.23.2.35.04.08.08.16.12.24-.19-.19-.35-.28-.62-.34-.35-.07-.87.14-1.14.42.13.28.36.53.65.7.15.09.32.14.49.15.17,0,.34-.03.5-.1.1-.05.31-.17.41-.24.25.51.5,1.02.72,1.55h0s-.03-.05-.05-.07c-.09-.12-.18-.24-.29-.35-.2-.2-.44-.39-.71-.49-.5-.18-1.02.05-1.33.45,0,0,0,0-.01.01.2.42.56.82,1,.99.13.05.25.07.38.08.38.02.75-.14,1.06-.35.02-.01.03-.02.05-.04.11.26.21.51.3.77.11.3.22.61.33.91,0,0,0,0,0,0-.05-.09-.11-.18-.17-.26-.13-.19-.29-.36-.46-.51-.24-.2-.53-.35-.85-.36-.41-.01-.82.21-1.09.51.2.48.55.94,1.03,1.16.18.08.37.12.56.12.32,0,.63-.09.92-.24.06-.03.11-.06.17-.1.06.19.12.38.18.58.12.41.23.83.33,1.25-.08-.15-.16-.29-.26-.43-.26-.37-.61-.73-1.06-.84-.5-.12-1.04.08-1.4.43.15.47.43.92.82,1.22.3.23.65.33,1.01.32.12,0,.24-.01.37-.04.13-.03.25-.06.37-.11.07-.03.14-.05.2-.08.02,0,.03-.02.05-.02.01.06.03.12.04.18.14.59.23,1.21.3,1.81-.02-.05-.04-.1-.06-.15-.17-.4-.4-.78-.73-1.06-.32-.27-.73-.41-1.15-.35-.32.04-.64.18-.9.38.08.47.33.97.66,1.31.35.36.82.55,1.31.55,0,0,0,0,0,0,0,0,0,0,0,0,.27,0,.54-.05.8-.13.04-.01.07-.02.11-.04.05.52.09,1.04.1,1.56,0,.19,0,.38,0,.56h0c-.13-.49-.32-.95-.66-1.33-.57-.63-1.51-.64-2.22-.22.05.51.23,1.06.55,1.47.3.39.73.65,1.21.74.13.02.26.04.39.04.13,0,.26,0,.38-.01.11-.01.22-.03.34-.05-.03.74-.09,1.47-.2,2.2h0c-.04-.38-.13-.75-.3-1.1-.24-.5-.64-.9-1.19-1.03-.43-.1-.92-.04-1.33.13,0,.5.07,1.01.28,1.46.23.48.61.86,1.11,1.07.21.09.44.15.67.18.13.02.26.03.39.03.07,0,.14,0,.21,0h0s0,0,0,0c0,0,0,0,.01,0-.14.74-.33,1.48-.56,2.2,0-.24,0-.47-.04-.71-.09-.58-.32-1.15-.81-1.5-.5-.36-1.2-.42-1.79-.28-.11.48-.08,1.01.03,1.48.14.52.43.97.86,1.29.42.31.93.48,1.45.56-.05.14-.11.28-.16.42-.24.59-.51,1.16-.82,1.71.03-.14.05-.27.07-.41.08-.73-.03-1.52-.6-2.04-.46-.43-1.15-.61-1.76-.59,0,0,0,0,0,0h0s0,0,0,0c-.41,1.01-.32,2.23.44,3.05.33.35.74.61,1.19.8.05.02.11.04.16.06-.05.08-.12.16-.17.24-.31-.02-.64-.04-.97-.04-.02-.14-.06-.27-.1-.41v-.45h-.24c-.39-.54-1.06-.87-1.7-1,0,0,0,0,0,0,0,0,0,0,0,0,0,0,0,0,0,0-.03.04-.05.09-.08.13-.39-.7-.91-1.13-1.49-1.13h-.44l-.91-6.17,4.36-4.46-6.15-1.04-2.89-5.53h0s0,0,0,0l-2.89,5.53h0s-6.14,1.04-6.14,1.04l4.36,4.46-.92,6.17h-.3c-.6,0-1.15.48-1.55,1.25-.05-.09-.09-.17-.15-.25,0,0,0,0,0,0,0,0,0,0,0,0-.64.13-1.31.46-1.71,1h-.21v.38c-.07.16-.11.32-.13.48-.34,0-.66.02-.97.04-.06-.08-.11-.17-.16-.24.05-.02.11-.04.16-.06.44-.19.86-.45,1.19-.8.76-.81.85-2.04.44-3.05,0,0,0,0,0,0,0,0,0,0,0,0-.62-.02-1.32.16-1.78.59-.56.52-.67,1.31-.6,2.04.01.13.04.26.06.38-.3-.55-.57-1.11-.8-1.69-.06-.14-.11-.28-.16-.42.52-.08,1.03-.25,1.45-.56.44-.32.72-.77.86-1.29.11-.47.14-1,.03-1.48,0,0,0,0-.01,0-.59-.13-1.29-.07-1.79.28-.49.35-.73.92-.81,1.5-.03.22-.04.45-.04.68-.23-.71-.41-1.43-.55-2.17,0,0,0,0,.01,0,0,0,0,0,0,0h0c.07,0,.14,0,.21,0,.13,0,.26-.01.39-.03.23-.03.46-.09.67-.18.49-.21.87-.59,1.11-1.07.22-.45.29-.97.28-1.46,0,0-.01,0-.02,0-.41-.17-.89-.22-1.32-.12-.55.13-.95.53-1.19,1.03-.16.33-.25.7-.29,1.06-.11-.72-.17-1.44-.2-2.16.11.02.22.04.34.05.13.01.26.02.38.01.13,0,.26-.02.39-.04.48-.09.91-.35,1.21-.74.31-.41.5-.96.55-1.47-.05-.03-.1-.05-.15-.07-.68-.34-1.54-.3-2.07.3-.33.37-.52.83-.65,1.3,0-.18,0-.36,0-.53.01-.52.05-1.04.1-1.56.04.01.07.03.11.04.26.08.53.13.8.13,0,0,0,0,0,0,0,0,0,0,0,0,.5,0,.97-.19,1.31-.55.33-.34.58-.84.66-1.31,0,0-.02,0-.02,0-.25-.19-.57-.33-.88-.37-.42-.06-.83.07-1.15.35-.33.28-.56.66-.73,1.06-.02.04-.03.07-.04.11.07-.59.17-1.19.3-1.78.01-.06.03-.12.04-.18.02,0,.03.02.05.02.07.03.13.06.2.08.12.05.25.08.37.11.12.03.24.04.37.04.36,0,.72-.09,1.01-.32.39-.3.67-.76.82-1.22-.02-.02-.03-.03-.05-.04-.36-.33-.88-.51-1.36-.4-.45.11-.81.47-1.06.84-.09.13-.17.27-.24.4.1-.41.2-.82.32-1.22.06-.19.12-.38.18-.58.06.03.11.07.17.1.28.15.6.24.92.24.19,0,.38-.04.56-.12.48-.22.83-.68,1.03-1.16,0,0-.02,0-.02-.01-.26-.3-.67-.51-1.07-.5-.32,0-.61.16-.85.36-.18.15-.33.33-.46.51-.05.08-.11.16-.15.24.1-.3.21-.59.32-.89.1-.26.2-.52.3-.77.02.01.03.02.05.04.31.22.68.37,1.06.35.13,0,.26-.03.38-.08.44-.17.8-.57,1-.99,0,0,0,0-.01-.01-.01-.01-.02-.02-.03-.03-.32-.38-.82-.59-1.31-.42-.27.1-.51.28-.71.49-.11.11-.2.23-.29.35,0,.01-.02.02-.03.04.22-.51.46-1.01.7-1.51.1.07.31.19.41.24.16.08.33.11.51.1.17,0,.34-.06.5-.15.29-.17.52-.42.65-.7,0,0,0,0-.01,0-.26-.27-.79-.49-1.13-.42-.27.06-.44.14-.62.34.04-.08.08-.16.12-.24.06-.12.13-.23.19-.35h0c.16-.02.52-.06.68-.1.44-.1.77-.41.92-.83.14-.39.16-.84.09-1.24,0,0,0,0,0,0-.17-.06-.37-.09-.58-.08-.35.01-.7.12-.9.35-.3.34-.42.61-.42,1.17,0,.2.08.59.11.71-.26.44-.5.89-.74,1.34,0,0,0,0,0,0,.03-.12.06-.24.09-.36.12-.52.18-1.11-.02-1.61-.21-.52-.74-.86-1.3-.86,0,0,0,0,0,0h0s0,0,0,0c-.25.43-.41.94-.42,1.44,0,.54.23,1.02.68,1.32.21.13.44.23.67.29.06.02.12.03.18.05-.05.1-.1.2-.15.3-.27.55-.52,1.12-.76,1.69h0c.08-.48.12-.97.05-1.45-.07-.41-.22-.81-.55-1.08-.31-.25-.74-.38-1.14-.35h0s0,0,0,0c0,0,0,0,0,0-.43.88-.58,2.2.29,2.86.17.13.37.23.58.3.12.04.24.07.36.1.07.01.13.03.2.04.02,0,.04,0,.06,0-.28.71-.52,1.43-.74,2.16h0c.01-.28,0-.56-.01-.83-.05-.58-.19-1.19-.63-1.61-.38-.36-.96-.51-1.47-.41-.09.21-.13.44-.17.66-.05.29-.08.59-.06.89.04.53.23,1.06.65,1.41.35.29.81.42,1.26.46.07,0,.14.01.21.01.02,0,.04,0,.06,0-.2.75-.36,1.51-.49,2.27,0,0,0,0,0,.01,0-.07-.01-.14-.02-.21-.1-.73-.27-1.55-.83-2.08-.46-.44-1.18-.58-1.78-.38-.13.52-.16,1.09-.07,1.62.09.51.29,1.04.69,1.39.35.3.79.43,1.24.46.13,0,.26,0,.39,0h0s0,0,0,0c.07,0,.14,0,.21-.02.02,0,.03,0,.05,0-.1.8-.15,1.61-.16,2.42-.21-.76-.48-1.54-1.07-2.09-.57-.52-1.44-.63-2.13-.28-.06.53,0,1.1.13,1.61.15.56.42,1.11.9,1.47.39.29.88.39,1.36.37h0s0,0,0,0c.27-.01.54-.07.81-.14.03.82.12,1.64.25,2.44-.31-.63-.68-1.24-1.21-1.7-.41-.35-.93-.55-1.47-.51-.38.03-.77.17-1.08.4.03.51.15,1.05.35,1.52.23.56.56,1.09,1.06,1.44.31.22.66.33,1.03.35.12,0,.25,0,.37,0,.26-.03.51-.09.76-.18.14-.05.27-.11.4-.17,0,0,0,0,0,0,0,.01,0,.03,0,.04.19.81.43,1.61.73,2.39-.07-.08-.13-.17-.2-.25-.28-.34-.58-.66-.93-.93-.46-.36-1.01-.62-1.6-.61-.53.01-1.05.26-1.43.62-.01.01-.03.03-.04.04,0,0,0,0,0,0-.02.02-.03.03-.05.05.14.54.38,1.05.68,1.52.32.51.75.98,1.29,1.26.34.18.72.26,1.1.24.13,0,.26-.02.39-.05.48-.11.92-.37,1.32-.68.24.5.5.98.79,1.45-.19.02-.38.05-.56.08-.13-.07-.26-.14-.4-.21-.53-.24-1.13-.37-1.71-.23-.52.12-.97.46-1.28.88-.05.07-.1.14-.14.21.06.12.13.24.2.36-1.04.5-1.54.98-1.54.98.75.77,2.56,2.45,2.56,2.45-.72,1.49-1.18,4.58-1.18,4.58,2.27-1.52,4.38-1.82,5.86-1.77v.59h1.42v1.96h-.28c-.1,0-.2.04-.29.11-.04.03-.08.08-.12.13-.09.12-.17.28-.21.47l-.41,1.69h-.41c-.24,0-.47.33-.52.74l-.23,1.91h21.11l-.23-1.91c-.05-.41-.28-.74-.52-.74h-.27l-.41-1.69c-.02-.07-.04-.14-.06-.2,0-.02-.01-.03-.02-.05-.05-.12-.12-.22-.19-.29,0,0-.02-.02-.03-.03-.04-.03-.08-.07-.12-.09-.06-.03-.13-.05-.2-.05h-.28v-1.96h1.31v-.59c1.48-.05,3.59.25,5.86,1.77,0,0-.45-3.09-1.18-4.58,0,0,1.81-1.68,2.56-2.45,0,0-.51-.48-1.56-.98.07-.12.14-.23.2-.35-.04-.07-.09-.14-.14-.21-.01-.02-.03-.02-.04-.03-.31-.41-.75-.73-1.25-.85-.58-.14-1.18-.01-1.71.23-.14.06-.27.13-.4.2-.18-.03-.37-.06-.56-.08,0-.01.02-.03.02-.04.09-.16.19-.32.28-.48.19-.34.37-.67.49-.93.39.3.83.56,1.32.68.13.03.26.05.39.05.38.02.76-.06,1.1-.24.54-.28.97-.75,1.29-1.26.3-.46.54-.98.68-1.52-.03-.03-.05-.07-.09-.09,0,0-.01,0-.02,0-.38-.36-.89-.6-1.43-.62-.59-.02-1.14.25-1.6.61-.35.27-.65.59-.93.93-.06.07-.12.15-.18.23.29-.77.54-1.57.72-2.37,0-.01,0-.03,0-.04ZM17.37,18.35l5.54,2.77h-11.08l5.54-2.77Z"/>
    </clipPath>
    <radialGradient id="radial-gradient" cx="100.51" cy="-18.79" fx="100.51" fy="-18.79" r="39.27" gradientTransform="translate(-32.75 24.44) scale(.5)" gradientUnits="userSpaceOnUse">
      <stop offset=".01" stop-color="#f6c054"/>
      <stop offset=".3" stop-color="#f2a942"/>
      <stop offset=".54" stop-color="#ffea72"/>
      <stop offset=".58" stop-color="#ffef71"/>
      <stop offset=".59" stop-color="#fff171"/>
      <stop offset=".76" stop-color="#fada61"/>
      <stop offset=".96" stop-color="#f3b94a"/>
    </radialGradient>
    <radialGradient id="radial-gradient-2" cx="100.51" cy="-18.79" fx="100.51" fy="-18.79" r="39.27" xlink:href="#radial-gradient"/>
    <radialGradient id="radial-gradient-3" cx="100.51" cy="-18.79" fx="100.51" fy="-18.79" r="39.27" xlink:href="#radial-gradient"/>
    <radialGradient id="radial-gradient-4" cx="100.53" cy="-18.79" fx="100.53" fy="-18.79" r="39.27" xlink:href="#radial-gradient"/>
    <radialGradient id="radial-gradient-5" cx="-597.53" cy="-18.79" fx="-597.53" fy="-18.79" r="39.27" gradientTransform="translate(-281.54 24.44) rotate(-180) scale(.5 -.5)" xlink:href="#radial-gradient"/>
    <linearGradient id="linear-gradient" x1="26.46" y1="24.93" x2="8.41" y2="36.02" gradientUnits="userSpaceOnUse">
      <stop offset=".04" stop-color="#a5422d"/>
      <stop offset=".99" stop-color="#6a2e25"/>
    </linearGradient>
    <radialGradient id="radial-gradient-6" cx="132.93" cy="66.29" fx="132.93" fy="66.29" r="15.58" gradientTransform="translate(-42.94 -3.76) scale(.45 .6)" gradientUnits="userSpaceOnUse">
      <stop offset=".01" stop-color="#f6c054"/>
      <stop offset=".54" stop-color="#ffea72"/>
      <stop offset=".58" stop-color="#ffef71"/>
      <stop offset=".59" stop-color="#fff171"/>
      <stop offset=".82" stop-color="#ffe05a"/>
      <stop offset=".96" stop-color="#ffd44a"/>
    </radialGradient>
    <radialGradient id="radial-gradient-7" cx="132.93" cy="33.87" fx="132.93" fy="33.87" r="15.55" gradientTransform="translate(-42.94 9.98) scale(.45 .77)" gradientUnits="userSpaceOnUse">
      <stop offset="0" stop-color="#ffffc3"/>
      <stop offset=".95" stop-color="#ffea72"/>
    </radialGradient>
    <linearGradient id="linear-gradient-2" x1="17.37" y1="36.73" x2="17.37" y2="40.18" gradientUnits="userSpaceOnUse">
      <stop offset=".04" stop-color="#a5422d"/>
      <stop offset=".48" stop-color="#8a3929"/>
      <stop offset=".99" stop-color="#6a2e25"/>
    </linearGradient>
    <linearGradient id="linear-gradient-3" x1="10.14" y1="20.21" x2="26.4" y2="6.39" gradientUnits="userSpaceOnUse">
      <stop offset=".01" stop-color="#f6c054"/>
      <stop offset=".3" stop-color="#f2a942"/>
      <stop offset=".54" stop-color="#ffea72"/>
      <stop offset=".58" stop-color="#ffef71"/>
      <stop offset=".59" stop-color="#fff171"/>
      <stop offset=".76" stop-color="#fada61"/>
      <stop offset=".96" stop-color="#f3b94a"/>
    </linearGradient>
    <linearGradient id="linear-gradient-4" x1="12.5" y1="17.48" x2="25.96" y2="8.3" gradientUnits="userSpaceOnUse">
      <stop offset="0" stop-color="#aa7238"/>
      <stop offset=".55" stop-color="#c08443"/>
      <stop offset=".77" stop-color="#c18544"/>
      <stop offset=".85" stop-color="#c68c48"/>
      <stop offset=".91" stop-color="#cf9850"/>
      <stop offset=".95" stop-color="#dca95a"/>
      <stop offset=".99" stop-color="#ecbf68"/>
      <stop offset="1" stop-color="#f0c46c"/>
    </linearGradient>
    <linearGradient id="linear-gradient-5" x1="9.52" y1="10.81" x2="13.79" y2="7.9" gradientUnits="userSpaceOnUse">
      <stop offset="0" stop-color="#b17a3d"/>
      <stop offset=".48" stop-color="#f0c46c"/>
      <stop offset=".62" stop-color="#e1b260"/>
      <stop offset=".89" stop-color="#ba8544"/>
      <stop offset="1" stop-color="#aa7238"/>
    </linearGradient>
    <linearGradient id="linear-gradient-6" x1="21.35" y1="8.51" x2="26.1" y2="11.03" gradientUnits="userSpaceOnUse">
      <stop offset="0" stop-color="#f0c46c"/>
      <stop offset=".34" stop-color="#edc16a"/>
      <stop offset=".53" stop-color="#e6b965"/>
      <stop offset=".69" stop-color="#dbab5c"/>
      <stop offset=".83" stop-color="#ca974f"/>
      <stop offset=".95" stop-color="#b47e3f"/>
      <stop offset="1" stop-color="#aa7238"/>
    </linearGradient>
    <linearGradient id="linear-gradient-7" x1="16.42" y1="4.12" x2="19.03" y2="9.39" gradientUnits="userSpaceOnUse">
      <stop offset="0" stop-color="#f0c46c"/>
      <stop offset=".27" stop-color="#e1b260"/>
      <stop offset=".8" stop-color="#ba8544"/>
      <stop offset="1" stop-color="#aa7238"/>
    </linearGradient>
    <linearGradient id="linear-gradient-8" x1="174.98" y1="4.12" x2="177.59" y2="9.39" gradientTransform="translate(193.29) rotate(-180) scale(1 -1)" xlink:href="#linear-gradient-5"/>
    <linearGradient id="linear-gradient-9" x1="-18.51" y1="-86.79" x2="-15.81" y2="-81.37" gradientTransform="translate(-17.1 -58.71) rotate(-38.18) scale(1 -1)" xlink:href="#linear-gradient-7"/>
    <linearGradient id="linear-gradient-10" x1="116.86" y1="-193.23" x2="119.55" y2="-187.8" gradientTransform="translate(224.03 -58.71) rotate(-141.82)" xlink:href="#linear-gradient-7"/>
    <linearGradient id="linear-gradient-11" x1="210.96" y1="14.35" x2="215.11" y2="10.06" gradientTransform="translate(223.41) rotate(-180) scale(1 -1)" xlink:href="#linear-gradient-5"/>
    <linearGradient id="linear-gradient-12" x1="99.37" y1="14.35" x2="103.52" y2="10.06" gradientTransform="translate(-77.1)" xlink:href="#linear-gradient-5"/>
    <linearGradient id="linear-gradient-13" x1="163.15" y1="42.99" x2="167.39" y2="38.62" gradientTransform="translate(10.49 -150.49) rotate(72.81)" xlink:href="#linear-gradient-5"/>
    <linearGradient id="linear-gradient-14" x1="212.34" y1="-116.01" x2="216.57" y2="-120.39" gradientTransform="translate(190.68 -150.49) rotate(107.19) scale(1 -1)" xlink:href="#linear-gradient-5"/>
    <linearGradient id="linear-gradient-15" x1="10.9" y1="19.37" x2="25.45" y2="6.99" xlink:href="#linear-gradient-3"/>
    <linearGradient id="linear-gradient-16" x1="12.93" y1="16.87" x2="23.58" y2="9.76" gradientUnits="userSpaceOnUse">
      <stop offset=".48" stop-color="#cc9434"/>
      <stop offset=".68" stop-color="#ffea72"/>
      <stop offset=".76" stop-color="#ffe66c"/>
      <stop offset=".87" stop-color="#ffde5c"/>
      <stop offset=".96" stop-color="#ffd44a"/>
    </linearGradient>
    <linearGradient id="linear-gradient-17" x1="13.26" y1="18.44" x2="21.92" y2="7.13" xlink:href="#linear-gradient-3"/>
    <linearGradient id="linear-gradient-18" x1="15.36" y1="16.44" x2="18.95" y2="7.71" xlink:href="#linear-gradient-5"/>
    <linearGradient id="linear-gradient-19" x1="19.58" y1="16.4" x2="15.48" y2="8.46" gradientUnits="userSpaceOnUse">
      <stop offset=".01" stop-color="#f6c054"/>
      <stop offset=".54" stop-color="#ffea72"/>
      <stop offset=".58" stop-color="#ffef71"/>
      <stop offset=".59" stop-color="#fff171"/>
      <stop offset=".76" stop-color="#fada61"/>
      <stop offset=".96" stop-color="#f3b94a"/>
    </linearGradient>
    <linearGradient id="linear-gradient-20" x1="19.58" y1="16.4" x2="15.48" y2="8.46" xlink:href="#linear-gradient-16"/>
    <radialGradient id="radial-gradient-8" cx="-647.7" cy="67.4" fx="-647.7" fy="67.4" r="21.75" gradientTransform="translate(-159.6 180.36) rotate(132.17) scale(.39 -.47) skewX(23.36)" gradientUnits="userSpaceOnUse">
      <stop offset="0" stop-color="#b30b10"/>
      <stop offset=".1" stop-color="#b70c11"/>
      <stop offset=".21" stop-color="#c31217"/>
      <stop offset=".31" stop-color="#d81b20"/>
      <stop offset=".34" stop-color="#df1f24"/>
      <stop offset=".74" stop-color="#db1a1f"/>
      <stop offset="1" stop-color="#b30b10"/>
    </radialGradient>
    <radialGradient id="radial-gradient-9" cx="115.1" cy=".68" fx="115.1" fy=".68" r="15.6" gradientTransform="translate(-32.75 24.13) scale(.5 .53)" gradientUnits="userSpaceOnUse">
      <stop offset="0" stop-color="#5c0b10"/>
      <stop offset=".21" stop-color="#600b10"/>
      <stop offset=".43" stop-color="#6c0b10"/>
      <stop offset=".65" stop-color="#810b10"/>
      <stop offset=".87" stop-color="#9e0b10"/>
      <stop offset="1" stop-color="#b30b10"/>
    </radialGradient>
    <radialGradient id="radial-gradient-10" cx="-720.69" cy="115.45" fx="-720.69" fy="115.45" r="21.75" gradientTransform="translate(224.76 180.36) rotate(47.83) scale(.39 .47) skewX(23.36)" xlink:href="#radial-gradient-8"/>
    <radialGradient id="radial-gradient-11" cx="175.93" fx="175.93" r="15.6" gradientTransform="translate(97.91 24.13) rotate(-180) scale(.5 -.53)" xlink:href="#radial-gradient-9"/>
    <linearGradient id="linear-gradient-21" x1="7.35" y1="27.99" x2="27.41" y2="27.99" gradientUnits="userSpaceOnUse">
      <stop offset="0" stop-color="#b30b10"/>
      <stop offset=".28" stop-color="#db1a1f"/>
      <stop offset=".75" stop-color="#df1f24"/>
      <stop offset=".88" stop-color="#c51318"/>
      <stop offset="1" stop-color="#b30b10"/>
    </linearGradient>
    <radialGradient id="radial-gradient-12" cx="1050.8" cy="102.7" fx="1050.8" fy="102.7" r="8.6" gradientTransform="translate(-195.77 272.98) rotate(-62.51) scale(.32 .69) skewX(-.02)" gradientUnits="userSpaceOnUse">
      <stop offset="0" stop-color="#fff"/>
      <stop offset=".14" stop-color="#e2e2e2"/>
      <stop offset=".43" stop-color="#999"/>
      <stop offset=".87" stop-color="#252525"/>
      <stop offset="1" stop-color="#000"/>
    </radialGradient>
    <mask id="mask" x="15.52" y="5.93" width="10.79" height="7.3" maskUnits="userSpaceOnUse">
      <path class="cls-27" d="M22.18,7.16c2.9,1.51,4.68,3.81,3.98,5.15-.7,1.34-3.61,1.2-6.51-.31-2.9-1.51-4.68-3.81-3.98-5.15.7-1.34,3.61-1.2,6.51.31Z"/>
    </mask>
    <radialGradient id="radial-gradient-13" cx="1050.8" cy="102.7" fx="1050.8" fy="102.7" r="8.6" gradientTransform="translate(-195.77 272.98) rotate(-62.51) scale(.32 .69) skewX(-.02)" gradientUnits="userSpaceOnUse">
      <stop offset="0" stop-color="#ecce88"/>
      <stop offset="1" stop-color="#000"/>
    </radialGradient>
    <radialGradient id="radial-gradient-14" cx="300.02" cy="-256.36" fx="300.02" fy="-256.36" r="3.9" gradientTransform="translate(-177.79 68) rotate(27.21) scale(.5 .56)" gradientUnits="userSpaceOnUse">
      <stop offset="0" stop-color="#fff"/>
      <stop offset=".21" stop-color="#c3c3c3"/>
      <stop offset=".6" stop-color="#5b5b5b"/>
      <stop offset=".87" stop-color="#191919"/>
      <stop offset="1" stop-color="#000"/>
    </radialGradient>
    <mask id="mask-1" x="18.87" y="7.52" width="4.1" height="4.12" maskUnits="userSpaceOnUse">
      <path class="cls-15" d="M22.74,10.52c-.52,1.01-1.76,1.41-2.76.9-1.01-.52-1.4-1.76-.88-2.77.52-1.01,1.76-1.41,2.76-.9,1.01.52,1.4,1.76.88,2.77Z"/>
    </mask>
    <radialGradient id="radial-gradient-15" cx="300.02" cy="-256.36" fx="300.02" fy="-256.36" r="3.9" gradientTransform="translate(-177.79 68) rotate(27.21) scale(.5 .56)" gradientUnits="userSpaceOnUse">
      <stop offset="0" stop-color="#ffa177"/>
      <stop offset=".13" stop-color="#e5906b"/>
      <stop offset=".4" stop-color="#a3674c"/>
      <stop offset=".79" stop-color="#3b251b"/>
      <stop offset="1" stop-color="#000"/>
    </radialGradient>
    <radialGradient id="radial-gradient-16" cx="817.47" cy="-64.7" fx="817.47" fy="-64.7" r="6.46" gradientTransform="translate(-91.95 260.57) rotate(-58.17) scale(.32 .59)" xlink:href="#radial-gradient-12"/>
    <mask id="mask-2" x="9.09" y="17.2" width="6.83" height="5.32" maskUnits="userSpaceOnUse">
      <path class="cls-24" d="M13.59,18.12c1.79,1.11,2.76,2.79,2.16,3.75-.6.96-2.53.84-4.32-.27-1.79-1.11-2.76-2.79-2.16-3.75s2.53-.84,4.32.27Z"/>
    </mask>
    <radialGradient id="radial-gradient-17" cx="817.47" cy="-64.7" fx="817.47" fy="-64.7" r="6.46" gradientTransform="translate(-91.95 260.57) rotate(-58.17) scale(.32 .59)" gradientUnits="userSpaceOnUse">
      <stop offset="0" stop-color="#ecc29a"/>
      <stop offset="1" stop-color="#000"/>
    </radialGradient>
    <radialGradient id="radial-gradient-18" cx="100.23" cy="-9.86" fx="100.23" fy="-9.86" r="38.88" gradientTransform="translate(-32.75 24.44) scale(.5)" gradientUnits="userSpaceOnUse">
      <stop offset="0" stop-color="#ececbb"/>
      <stop offset="1" stop-color="#784f58"/>
    </radialGradient>
  </defs>
  <g class="cls-32">
    <g id="Layer_2" data-name="Layer 2">
      <g id="Layer_1-2" data-name="Layer 1">
        <g class="cls-46">
          <g>
            <g>
              <path class="cls-19" d="M31.45,18.95s.01,0,.02,0c.14.07.28.12.42.18.26.09.52.16.8.19.52.06,1.04-.06,1.46-.36.53-.37.87-.93,1.12-1.51.21-.5.34-1.06.37-1.6-.32-.24-.73-.39-1.13-.42-.57-.05-1.12.17-1.55.53-.56.48-.95,1.12-1.27,1.79.14-.85.23-1.71.27-2.58.28.08.57.13.86.15.51.03,1.02-.08,1.43-.39.5-.38.79-.95.95-1.55.15-.54.2-1.14.14-1.7-.72-.37-1.64-.26-2.24.29-.62.57-.9,1.4-1.13,2.2,0-.85-.06-1.7-.16-2.55.02,0,.04,0,.06,0,.07,0,.15.01.22.02.14,0,.27,0,.41,0,.47-.03.94-.17,1.31-.49.42-.37.64-.92.73-1.46.09-.55.06-1.16-.07-1.7-.63-.21-1.39-.07-1.87.4-.58.56-.77,1.42-.87,2.19,0,.07-.02.15-.03.22,0,0,0,0,0-.01-.13-.81-.3-1.61-.51-2.39.02,0,.04,0,.06,0,.07,0,.15,0,.22-.01.47-.04.96-.17,1.33-.48.44-.37.64-.92.68-1.48.02-.31,0-.63-.06-.94-.04-.23-.09-.48-.18-.7-.54-.11-1.15.05-1.55.43-.46.44-.61,1.08-.66,1.69-.02.29-.03.59-.01.88-.23-.77-.49-1.53-.78-2.27.02,0,.04,0,.06,0,.07-.01.14-.02.21-.04.13-.03.26-.06.38-.1.22-.07.43-.17.61-.31.92-.7.76-2.09.3-3.01-.42-.04-.88.1-1.21.37-.35.29-.51.71-.58,1.14-.08.5-.03,1.02.05,1.53-.25-.6-.51-1.19-.8-1.78-.05-.11-.11-.21-.16-.32.07-.01.13-.03.19-.05.25-.07.49-.17.71-.31.48-.31.73-.82.72-1.39,0-.52-.17-1.06-.44-1.51-.6,0-1.17.35-1.39.91-.21.53-.14,1.15-.02,1.7.03.13.06.26.1.39-.24-.48-.5-.94-.77-1.41.03-.11.12-.54.12-.76,0-.59-.12-.88-.44-1.23-.33-.37-1.08-.45-1.55-.28-.08.43-.05.9.1,1.31.16.45.5.77.96.88.17.04.55.09.72.1.07.12.14.25.21.37.04.08.08.17.13.25-.2-.2-.37-.29-.65-.35-.37-.08-.92.15-1.2.44.14.29.38.56.68.73.32.19.71.21,1.05.04.11-.05.33-.18.43-.25.27.54.52,1.08.76,1.63-.02-.03-.04-.05-.06-.08-.09-.13-.19-.26-.3-.37-.21-.21-.46-.41-.75-.51-.52-.19-1.07.05-1.4.47,0,0,0,0-.01.01.21.44.59.87,1.05,1.04.52.2,1.07.02,1.51-.29.02-.01.04-.03.06-.04.11.27.22.54.32.82.12.32.24.64.35.97-.06-.1-.12-.19-.18-.28-.14-.2-.3-.38-.49-.54-.25-.21-.56-.37-.9-.38-.43-.01-.86.22-1.14.54.21.5.58.99,1.09,1.23.51.23,1.07.12,1.55-.13.06-.03.12-.07.19-.11.07.2.13.41.19.61.13.43.24.87.35,1.31-.08-.16-.17-.31-.27-.46-.27-.39-.64-.77-1.12-.88-.52-.13-1.1.09-1.48.46.16.49.45.97.86,1.29.41.32.94.4,1.44.3.13-.03.27-.07.39-.12.07-.03.14-.06.21-.09.02,0,.04-.02.06-.03.02.07.03.13.05.2.14.63.24,1.27.32,1.91-.02-.05-.04-.1-.06-.16-.18-.42-.42-.82-.77-1.12-.34-.29-.76-.43-1.21-.37-.34.05-.68.19-.94.4.09.5.35,1.02.7,1.38.36.38.86.58,1.38.58.29,0,.57-.05.84-.13.04-.01.08-.03.12-.04.06.55.09,1.1.11,1.65,0,.2,0,.4,0,.59-.14-.51-.34-1-.7-1.4-.6-.67-1.59-.68-2.33-.24.05.54.24,1.12.58,1.55.31.41.77.68,1.28.78.26.05.53.05.8.03.12-.01.24-.03.36-.05-.03.77-.1,1.55-.21,2.32-.05-.4-.14-.79-.31-1.16-.25-.53-.67-.95-1.25-1.08-.46-.1-.97-.04-1.4.13-.01.52.07,1.07.3,1.54.24.51.65.9,1.16,1.12.23.1.47.16.71.19.14.02.27.03.41.03.08,0,.15,0,.23,0,0,0,.02,0,.02,0-.15.78-.35,1.56-.59,2.31,0-.25,0-.5-.04-.74-.09-.61-.34-1.21-.86-1.58-.53-.37-1.27-.44-1.89-.3-.11.5-.08,1.06.04,1.56.15.55.45,1.02.91,1.36.44.33.98.51,1.52.59-.06.15-.11.3-.17.44-.25.62-.54,1.22-.86,1.8.03-.14.06-.29.07-.43.08-.77-.03-1.6-.63-2.15-.49-.45-1.22-.64-1.87-.62-.43,1.06-.33,2.35.46,3.21.35.37.78.65,1.25.84.06.02.11.05.17.07-.45.7-.96,1.37-1.52,1.99.02-.05.04-.1.07-.14.29-.7.41-1.52.07-2.23-.36-.75-1.2-1.2-1.99-1.36-.67.97-.75,2.26-.19,3.3.25.45.59.84,1,1.16.06.05.12.09.18.14-.06.06-.12.12-.19.17-.5.45-1.05.85-1.61,1.22-.09.06-.19.12-.28.18.58-.7,1.02-1.58.77-2.49-.21-.79-.91-1.42-1.61-1.79-.18.14-.33.33-.47.5-.18.23-.33.47-.46.73-.27.56-.38,1.19-.29,1.81.06.42.21.82.41,1.19,2.16.52,4.19,1.53,6.06,2.81.73-.34,1.39-.84,1.92-1.4-.11-.66-.56-1.27-1.14-1.6-.96-.54-2.14-.31-3.14-.01-.2.06-.4.12-.59.19.74-.57,1.42-1.21,2.04-1.92.02.03.04.06.06.08.37.46.81.9,1.37,1.13.61.25,1.29.2,1.89-.06,1.09-.46,1.95-1.45,2.49-2.48-.04-.08-.09-.15-.14-.22-.33-.45-.8-.8-1.35-.93-.61-.15-1.24-.01-1.8.24-.55.25-1.05.6-1.53.96.51-.75.96-1.53,1.35-2.36.42.32.88.6,1.39.72.53.13,1.08.05,1.56-.2.57-.3,1.02-.79,1.36-1.33.31-.49.57-1.04.71-1.6-.03-.03-.06-.06-.09-.1-.4-.39-.95-.64-1.51-.66-.63-.02-1.2.26-1.69.64-.36.28-.68.62-.98.98-.07.09-.14.17-.21.26.31-.82.57-1.66.77-2.51,0-.02,0-.03.01-.05Z"/>
              <path class="cls-35" d="M10.41,28.36c.65-.43,1.34-.78,2.07-1.04,0-.05.02-.09.03-.13.09-.62-.02-1.25-.29-1.81-.13-.26-.28-.5-.46-.73-.14-.18-.29-.36-.47-.5-.7.38-1.39,1.01-1.61,1.79-.24.89.17,1.74.72,2.43Z"/>
              <path class="cls-20" d="M5.24,28.17c-.58.32-1.02.94-1.14,1.6.69.73,1.6,1.36,2.58,1.66.06-.04.11-.08.17-.12,1.16-1.06,2.3-2.11,3.53-2.93-.07-.04-.14-.09-.21-.13-.56-.37-1.11-.77-1.61-1.22-.06-.06-.12-.11-.19-.17.06-.05.12-.09.18-.14.4-.32.75-.71,1-1.16.56-1.03.48-2.33-.19-3.3-.79.16-1.63.61-1.98,1.36-.34.7-.22,1.53.07,2.23.02.05.04.1.07.14-.56-.62-1.07-1.28-1.52-1.99.06-.02.11-.04.17-.07.47-.2.9-.47,1.25-.84.8-.86.9-2.15.46-3.21-.65-.02-1.39.17-1.87.62-.59.55-.71,1.38-.63,2.15.02.14.04.29.07.43-.32-.58-.61-1.18-.86-1.8-.06-.15-.12-.29-.17-.44.54-.08,1.08-.26,1.52-.59.46-.34.76-.81.91-1.36.12-.5.15-1.06.04-1.56-.62-.14-1.36-.07-1.89.3-.52.37-.77.97-.86,1.58-.04.25-.05.5-.04.74-.24-.76-.44-1.53-.59-2.31,0,0,.02,0,.02,0,.08,0,.15,0,.23,0,.14,0,.28-.02.41-.03.24-.04.48-.1.71-.19.52-.22.92-.62,1.16-1.12.23-.47.31-1.02.3-1.54-.43-.18-.95-.24-1.4-.13-.58.13-1,.55-1.25,1.08-.17.36-.27.76-.31,1.16-.11-.77-.18-1.54-.21-2.32.12.02.24.04.36.05.27.03.54.02.8-.03.51-.1.96-.37,1.28-.78.33-.43.53-1.01.58-1.55-.74-.44-1.73-.43-2.33.24-.36.4-.56.89-.7,1.4,0-.2,0-.4,0-.59.01-.55.05-1.1.11-1.65.04.01.08.03.12.04.27.08.56.13.84.13.52,0,1.02-.2,1.38-.58.35-.36.61-.88.7-1.38-.27-.21-.61-.35-.94-.4-.44-.06-.87.08-1.21.37-.35.3-.59.7-.77,1.12-.02.05-.04.1-.06.16.08-.64.18-1.28.32-1.91.02-.07.03-.13.05-.2.02.01.04.02.06.03.07.03.14.06.21.09.13.05.26.09.39.12.5.1,1.03.02,1.44-.3.41-.32.7-.79.86-1.29-.38-.37-.95-.58-1.48-.46-.48.12-.85.49-1.12.88-.1.15-.19.3-.27.46.11-.44.22-.88.35-1.31.06-.2.13-.41.19-.61.06.04.12.07.19.11.48.25,1.04.36,1.55.13.51-.23.88-.72,1.09-1.23-.28-.32-.71-.55-1.14-.54-.33.01-.64.16-.9.38-.19.16-.35.34-.49.54-.07.09-.13.19-.18.28.11-.32.23-.64.35-.97.1-.27.21-.55.32-.82.02.01.04.03.06.04.44.31.99.49,1.51.29.46-.18.85-.6,1.05-1.04,0,0,0,0-.01-.01-.33-.42-.88-.66-1.4-.47-.29.1-.54.3-.75.51-.11.11-.21.24-.31.37-.02.03-.04.05-.06.08.23-.55.49-1.1.76-1.63.11.07.33.2.44.26.34.16.72.14,1.05-.04.31-.18.55-.44.68-.73-.28-.29-.83-.52-1.2-.44-.29.06-.47.16-.68.37.05-.09.09-.18.14-.27.07-.12.14-.25.21-.37.17-.01.56-.07.73-.11.46-.1.81-.43.96-.88.15-.41.17-.88.1-1.31-.46-.18-1.22-.1-1.55.28-.32.36-.44.64-.44,1.23,0,.21.09.62.11.75-.27.47-.53.94-.78,1.42.03-.13.07-.26.1-.39.12-.54.19-1.16-.02-1.7-.22-.56-.8-.91-1.39-.91-.27.45-.43.99-.44,1.51,0,.57.24,1.08.72,1.39.22.14.46.24.71.31.06.02.13.03.19.05-.05.11-.11.21-.16.32-.29.58-.55,1.18-.8,1.78.08-.5.13-1.03.05-1.53-.07-.43-.23-.85-.58-1.14-.33-.27-.79-.41-1.21-.37-.46.92-.62,2.31.3,3.01.18.14.39.24.61.31.12.04.25.07.38.1.07.01.14.03.21.04.02,0,.04,0,.06,0-.29.75-.55,1.5-.78,2.27.01-.29,0-.59-.01-.88-.05-.61-.2-1.26-.66-1.69-.4-.38-1.01-.54-1.55-.43-.09.22-.14.46-.18.7-.05.31-.08.62-.06.94.04.56.24,1.12.68,1.48.37.31.86.44,1.33.48.07,0,.15.01.22.01.02,0,.04,0,.06,0-.21.79-.38,1.59-.51,2.39,0,0,0,0,0,.01,0-.07-.02-.15-.03-.22-.1-.77-.29-1.63-.87-2.19-.48-.46-1.24-.61-1.87-.4-.14.54-.17,1.15-.07,1.7.09.54.31,1.09.73,1.46.36.32.83.46,1.31.49.14,0,.27,0,.41,0,.07,0,.15,0,.22-.02.02,0,.04,0,.06,0-.1.85-.16,1.7-.16,2.55-.22-.8-.51-1.62-1.13-2.2-.6-.55-1.51-.66-2.24-.29-.06.56,0,1.16.14,1.7.16.59.45,1.17.95,1.55.41.31.92.41,1.43.39.29-.02.58-.07.86-.15.03.86.12,1.72.27,2.58-.32-.67-.72-1.31-1.27-1.79-.43-.37-.98-.58-1.55-.53-.4.03-.81.18-1.13.42.03.54.16,1.1.37,1.6.24.59.59,1.14,1.12,1.51.43.3.95.42,1.46.36.27-.03.54-.1.8-.19.14-.05.28-.11.42-.18,0,0,.01,0,.02,0,0,.02,0,.03.01.05.2.85.46,1.69.77,2.51-.07-.09-.14-.17-.21-.26-.3-.35-.61-.69-.98-.98-.48-.37-1.06-.66-1.69-.64-.56.01-1.1.27-1.51.66-.03.03-.06.06-.09.1.14.56.4,1.11.71,1.6.34.54.79,1.03,1.36,1.33.48.25,1.03.33,1.56.2.51-.12.98-.4,1.39-.72.39.82.84,1.61,1.35,2.36-.49-.36-.98-.7-1.53-.96-.56-.25-1.19-.39-1.8-.24-.54.13-1.02.48-1.35.93-.05.07-.1.15-.14.22.54,1.03,1.41,2.01,2.49,2.48.6.26,1.28.31,1.89.06.56-.23,1-.66,1.37-1.13.02-.03.04-.06.06-.08.61.71,1.3,1.35,2.03,1.92-.2-.07-.39-.13-.59-.19-1-.3-2.18-.53-3.14.01Z"/>
              <path class="cls-30" d="M5.25,28.17c-.58.32-1.03.94-1.14,1.6.69.73,1.6,1.36,2.58,1.66.06-.04.11-.08.17-.12,1.16-1.06,2.3-2.11,3.53-2.93-.07-.04-.14-.09-.21-.13-.56-.37-1.11-.77-1.61-1.22-.06-.06-.12-.11-.19-.17.06-.05.12-.09.18-.14.4-.32.75-.71,1-1.16.56-1.03.48-2.33-.19-3.3-.47.56-.07,1.5-.26,2.31-.33,1.41-1.37,1.63-1.35,1.68-.56-.62-1.3-1.54-1.75-2.25.06-.02.11-.04.17-.07.47-.2.9-.47,1.25-.84.8-.86.9-2.15.46-3.21-.65-.02-.32,1.7-1.02,2.31-1.22,1.06-1.41.89-1.41.89-.32-.58-.61-1.18-.86-1.8-.06-.15-.12-.29-.17-.44.54-.08,1.08-.26,1.52-.59.46-.34.76-.81.91-1.36.12-.5.15-1.06.04-1.56-.62-.14-.88,1.67-1.39,2.07-.77.62-1.4.55-1.4.55-.24-.76-.44-1.53-.59-2.31,0,0,.02,0,.02,0,.08,0,.15,0,.23,0,.14,0,.28-.02.41-.03.24-.04.48-.1.71-.19.52-.22.92-.62,1.16-1.12.23-.47.31-1.02.3-1.54-.43-.18-1.13,1.26-1.52,1.52-.85.54-1.45.59-1.45.59-.11-.77-.18-1.54-.21-2.32.12.02.24.04.36.05.27.03.54.02.8-.03.51-.1.96-.37,1.28-.78.33-.43.53-1.01.58-1.55-.74-.44-.85.53-1.45,1.2-.36.4-1.58.44-1.58.44,0-.2,0-.4,0-.59.01-.55.05-1.1.11-1.65.04.01.08.03.12.04.27.08.56.13.84.13.52,0,1.02-.2,1.38-.58.35-.36.61-.88.7-1.38-.27-.21-1,.22-1.43.88-.25.39-1.06.49-1.55.35.08-.64.18-1.28.32-1.91.02-.07.03-.13.05-.2.02.01.04.02.06.03.07.03.14.06.21.09.13.05.26.09.39.12.5.1,1.03.02,1.44-.3.41-.32.7-.79.86-1.29-.38-.37-1.09.67-1.6.83-.85.27-1.04.13-1.26.05.11-.44.22-.88.35-1.31.06-.2.13-.41.19-.61.06.04.12.07.19.11.48.25,1.04.36,1.55.13.51-.23.88-.72,1.09-1.23-.28-.32-1.17.39-1.47.53-.79.36-1.19.03-1.24.13.11-.32.23-.64.35-.97.1-.27.21-.55.32-.82.02.01.04.03.06.04.44.31.99.49,1.51.29.46-.18.85-.6,1.05-1.04,0,0,0,0-.01-.01-.33-.42-.91.3-1.43.48-.29.1-1.06-.02-1.08,0,.23-.55.49-1.1.76-1.63.11.07.33.2.44.26.34.16.72.14,1.05-.04.31-.18.55-.44.68-.73-.51-.18-.79.18-1.16.26-.29.06-.72-.33-.72-.33.05-.09.09-.18.14-.27.07-.12.14-.25.21-.37,0,0,.32-1.8,1.79-2.29-.46-.18-1.22-.1-1.55.28-.32.36-.44.64-.44,1.23,0,.21.09.62.11.75-.27.47-.53.94-.78,1.42-.33-.31-.76-.68-.96-1.21-.22-.56.25-1.79-.35-1.78-.27.45-.43.99-.44,1.51,0,.57.24,1.08.72,1.39.22.14.46.24.71.31.06.02.13.03.19.05-.05.11-.11.21-.16.32-.28.58-.55,1.18-.8,1.78-1.03-.42-1.15-.91-1.36-1.53-.13-.4.04-1.54-.38-1.5-.46.92-.62,2.31.3,3.01.18.14.39.24.61.31.12.04.25.07.38.1.07.01.14.03.21.04.02,0,.04,0,.06,0-.29.75-.55,1.5-.78,2.27-.62-.1-1.06-.33-1.53-1.13-.28-.47-.15-1.98-.69-1.87-.09.22-.14.46-.18.7-.05.31-.08.62-.06.94.04.56.24,1.12.68,1.48.37.31.86.44,1.33.48.07,0,.15.01.22.01.02,0,.04,0,.06,0-.21.79-.38,1.59-.51,2.39,0,0,0,0,0,.01-1.2.15-1.45-.21-1.82-.71-.41-.53-.31-2.31-.95-2.1-.14.54-.17,1.15-.07,1.7.09.54.31,1.09.73,1.46.36.32.83.46,1.31.49.14,0,.27,0,.41,0,.07,0,.15,0,.22-.02.02,0,.04,0,.06,0-.1.85-.16,1.7-.16,2.55,0,0-1.53.17-2.16-.4C.01,13.24.12,11.33-.6,11.7c-.06.56,0,1.16.14,1.7.16.59.45,1.17.95,1.55.41.31.92.41,1.43.39.29-.02.58-.07.86-.15.03.86.12,1.72.26,2.58,0,0-1.07.62-2.16-.09-.67-.44-.88-1.9-1.8-1.81.03.54.16,1.1.37,1.6.24.59.59,1.14,1.12,1.51.43.3.95.42,1.46.36.27-.03.54-.1.8-.19.14-.05.28-.11.42-.18,0,0,.01,0,.02,0,0,.02,0,.03.01.05.2.85.46,1.69.77,2.51-.34.85-1.59.86-2.02.68-1.66-.7-1.35-2.35-2.37-1.9-.04.02-.06.06-.09.1.14.56.4,1.11.71,1.6.34.54.79,1.03,1.36,1.33.48.25,1.03.33,1.56.2.51-.12.98-.4,1.39-.72.39.82,1.23,2.2,1.74,2.95,0,0-.64,1.04-2.66.51-.99-.26-2.08-1.81-2.41-1.36-.05.07-.1.15-.14.22.54,1.03,1.41,2.01,2.49,2.48.6.26,1.28.31,1.89.06.56-.23,1-.66,1.37-1.13.02-.03.04-.06.06-.08.61.71,1.3,1.35,2.03,1.92-.2-.07-.39-.13-.59-.19-1-.3-2.18-.53-3.14.01Z"/>
              <path class="cls-26" d="M29.49,28.17c.58.32,1.02.94,1.14,1.6-.69.73-1.6,1.36-2.58,1.66-.06-.04-.11-.08-.17-.12-1.16-1.06-2.3-2.11-3.53-2.93.07-.04.14-.09.21-.13.56-.37,1.11-.77,1.61-1.22.06-.06.12-.11.19-.17-.06-.05-.12-.09-.18-.14-.4-.32-.75-.71-1-1.16-.56-1.03-.48-2.33.19-3.3.47.56.07,1.5.26,2.31.33,1.41,1.37,1.63,1.35,1.68.56-.62,1.3-1.54,1.75-2.25-.06-.02-.11-.04-.17-.07-.47-.2-.9-.47-1.25-.84-.8-.86-.9-2.15-.46-3.21.65-.02.32,1.7,1.02,2.31,1.22,1.06,1.41.89,1.41.89.32-.58.61-1.18.86-1.8.06-.15.12-.29.17-.44-.54-.08-1.08-.26-1.52-.59-.46-.34-.76-.81-.91-1.36-.12-.5-.15-1.06-.04-1.56.62-.14.88,1.67,1.39,2.07.77.62,1.4.55,1.4.55.24-.76.44-1.53.59-2.31,0,0-.02,0-.02,0-.08,0-.15,0-.23,0-.14,0-.28-.02-.41-.03-.24-.04-.48-.1-.71-.19-.52-.22-.92-.62-1.16-1.12-.23-.47-.31-1.02-.3-1.54.43-.18,1.13,1.26,1.52,1.52.85.54,1.45.59,1.45.59.11-.77.18-1.54.21-2.32-.12.02-.24.04-.36.05-.27.03-.54.02-.8-.03-.51-.1-.96-.37-1.28-.78-.33-.43-.53-1.01-.58-1.55.74-.44.85.53,1.45,1.2.36.4,1.58.44,1.58.44,0-.2,0-.4,0-.59-.01-.55-.05-1.1-.11-1.65-.04.01-.08.03-.12.04-.27.08-.56.13-.84.13-.52,0-1.02-.2-1.38-.58-.35-.36-.61-.88-.7-1.38.27-.21,1,.22,1.43.88.25.39,1.06.49,1.55.35-.08-.64-.18-1.28-.32-1.91-.02-.07-.03-.13-.05-.2-.02.01-.04.02-.06.03-.07.03-.14.06-.21.09-.13.05-.26.09-.39.12-.5.1-1.03.02-1.44-.3-.41-.32-.7-.79-.86-1.29.38-.37,1.09.67,1.6.83.85.27,1.04.13,1.26.05-.11-.44-.22-.88-.35-1.31-.06-.2-.13-.41-.19-.61-.06.04-.12.07-.19.11-.48.25-1.04.36-1.55.13-.51-.23-.88-.72-1.09-1.23.28-.32,1.17.39,1.47.53.79.36,1.19.03,1.24.13-.11-.32-.23-.64-.35-.97-.1-.27-.21-.55-.32-.82-.02.01-.04.03-.06.04-.44.31-.99.49-1.51.29-.46-.18-.85-.6-1.05-1.04,0,0,0,0,.01-.01.33-.42.91.3,1.43.48.29.1,1.06-.02,1.08,0-.23-.55-.49-1.1-.76-1.63-.11.07-.33.2-.44.26-.34.16-.72.14-1.05-.04-.31-.18-.55-.44-.68-.73.51-.18.79.18,1.16.26.29.06.72-.33.72-.33-.05-.09-.09-.18-.14-.27-.07-.12-.14-.25-.21-.37,0,0-.32-1.8-1.79-2.29.46-.18,1.22-.1,1.55.28.32.36.44.64.44,1.23,0,.21-.09.62-.11.75.27.47.53.94.78,1.42.33-.31.76-.68.96-1.21.22-.56-.25-1.79.35-1.78.27.45.43.99.44,1.51,0,.57-.24,1.08-.72,1.39-.22.14-.46.24-.71.31-.06.02-.13.03-.19.05.05.11.11.21.16.32.29.58.55,1.18.8,1.78,1.03-.42,1.15-.91,1.36-1.53.13-.4-.04-1.54.38-1.5.46.92.62,2.31-.3,3.01-.18.14-.39.24-.61.31-.12.04-.25.07-.38.1-.07.01-.14.03-.21.04-.02,0-.04,0-.06,0,.29.75.55,1.5.78,2.27.62-.1,1.06-.33,1.53-1.13.28-.47.15-1.98.69-1.87.09.22.14.46.18.7.05.31.08.62.06.94-.04.56-.24,1.12-.68,1.48-.37.31-.86.44-1.33.48-.07,0-.15.01-.22.01-.02,0-.04,0-.06,0,.21.79.38,1.59.51,2.39,0,0,0,0,0,.01,1.2.15,1.45-.21,1.82-.71.41-.53.31-2.31.95-2.1.14.54.17,1.15.07,1.7-.09.54-.31,1.09-.73,1.46-.36.32-.83.46-1.31.49-.14,0-.27,0-.41,0-.07,0-.15,0-.22-.02-.02,0-.04,0-.06,0,.1.85.16,1.7.16,2.55,0,0,1.53.17,2.16-.4.6-.55.49-2.46,1.21-2.09.06.56,0,1.16-.14,1.7-.16.59-.45,1.17-.95,1.55-.41.31-.92.41-1.43.39-.29-.02-.58-.07-.86-.15-.03.86-.12,1.72-.27,2.58,0,0,1.07.62,2.16-.09.67-.44.88-1.9,1.8-1.81-.03.54-.16,1.1-.37,1.6-.24.59-.59,1.14-1.12,1.51-.43.3-.95.42-1.46.36-.27-.03-.54-.1-.8-.19-.14-.05-.28-.11-.42-.18,0,0-.01,0-.02,0,0,.02,0,.03-.01.05-.2.85-.46,1.69-.77,2.51.34.85,1.59.86,2.02.68,1.66-.7,1.35-2.35,2.37-1.9.04.02.06.06.09.1-.14.56-.4,1.11-.71,1.6-.34.54-.79,1.03-1.36,1.33-.48.25-1.03.33-1.56.2-.51-.12-.98-.4-1.39-.72-.39.82-1.23,2.2-1.74,2.95,0,0,.64,1.04,2.66.51.99-.26,2.08-1.81,2.41-1.36.05.07.1.15.14.22-.54,1.03-1.41,2.01-2.49,2.48-.6.26-1.28.31-1.89.06-.56-.23-1-.66-1.37-1.13-.02-.03-.04-.06-.06-.08-.61.71-1.3,1.35-2.03,1.92.2-.07.4-.13.59-.19,1-.3,2.18-.53,3.14.01Z"/>
            </g>
            <g>
              <g>
                <path class="cls-45" d="M26.03,38.54v-12.78c0-2.51-1.04-4.55-2.32-4.55h-12.54c-1.28,0-2.32,2.04-2.32,4.55v12.78h17.18Z"/>
                <path class="cls-44" d="M7.91,35.48l-.43,1.78h19.92l-.43-1.78c-.11-.45-.36-.74-.65-.74H8.55c-.28,0-.54.29-.65.74Z"/>
                <path class="cls-7" d="M26.97,35.48c-.11-.45-.36-.74-.65-.74H8.55c-.28,0-.54.29-.65.74l-.43,1.78h.23l.42-1.5c.1-.38.36-.62.63-.62h17.35c.28,0,.53.25.63.62l.42,1.5h.23l-.43-1.78Z"/>
                <path class="cls-14" d="M28.47,40.04l-.24-2.01c-.05-.43-.3-.77-.55-.77H7.05c-.25,0-.5.35-.55.77l-.24,2.01h22.22Z"/>
                <path class="cls-10" d="M28.23,38.03c-.05-.43-.3-.77-.55-.77H7.05c-.25,0-.5.35-.55.77l-.24,2.01h.33l.24-1.63c.05-.35.29-.63.53-.63h20.01c.24,0,.48.28.53.63l.24,1.63h.33l-.24-2.01Z"/>
              </g>
              <path class="cls-25" d="M27.68,37.26h-.29l-.43-1.78c-.08-.33-.24-.58-.44-.69-.07-.03-.14-.05-.21-.05h-.29v-5.57H8.84v5.57h-.29c-.28,0-.54.29-.65.74l-.43,1.78h-.43c-.25,0-.5.35-.55.77l-.24,2.01h22.22l-.24-2.01c-.05-.43-.3-.77-.55-.77Z"/>
            </g>
            <g>
              <polygon class="cls-22" points="17.37 3.11 20.41 8.92 26.88 10.02 22.29 14.71 23.25 21.21 17.37 18.29 11.48 21.21 12.44 14.71 7.85 10.02 14.32 8.92 17.37 3.11"/>
              <polygon class="cls-18" points="17.37 3.11 20.41 8.92 26.88 10.02 22.29 14.71 23.25 21.21 17.37 18.29 11.48 21.21 12.44 14.71 7.85 10.02 14.32 8.92 17.37 3.11"/>
              <polygon class="cls-23" points="8.84 10.24 7.85 10.02 14.32 8.92 14.64 9.26 8.84 10.24"/>
              <polygon class="cls-42" points="25.88 10.24 26.88 10.02 20.4 8.92 20.09 9.26 25.88 10.24"/>
              <polygon class="cls-38" points="17.37 3.11 20.41 8.92 20.09 9.26 17.37 9.26 17.37 3.11"/>
              <polygon class="cls-33" points="17.36 3.11 14.32 8.92 14.64 9.26 17.36 9.26 17.36 3.11"/>
              <polygon class="cls-39" points="23.25 21.21 22.29 14.71 21.77 14.44 19.45 16.37 23.25 21.21"/>
              <polygon class="cls-12" points="11.48 21.21 12.44 14.71 12.96 14.44 15.28 16.37 11.48 21.21"/>
              <polygon class="cls-40" points="7.85 10.02 12.44 14.71 12.96 14.44 8.84 10.24 7.85 10.02"/>
              <polygon class="cls-13" points="26.87 10.02 22.28 14.71 21.76 14.45 25.88 10.25 26.87 10.02"/>
              <polygon class="cls-3" points="23.25 21.21 17.37 18.29 17.37 17.65 22.63 20.26 23.25 21.21"/>
              <polygon class="cls-36" points="11.48 21.21 17.37 18.29 17.37 17.65 12.1 20.26 11.48 21.21"/>
              <polygon class="cls-2" points="17.37 4.05 20.09 9.26 25.89 10.24 21.77 14.44 22.63 20.26 17.37 17.65 12.1 20.26 12.96 14.44 8.84 10.24 14.64 9.26 17.37 4.05"/>
              <polygon class="cls-5" points="17.37 4.05 20.09 9.26 25.89 10.24 21.77 14.44 22.63 20.26 17.37 17.65 12.1 20.26 12.96 14.44 8.84 10.24 14.64 9.26 17.37 4.05"/>
              <polygon class="cls-5" points="17.37 4.05 20.09 9.26 25.89 10.24 21.77 14.44 22.63 20.26 17.37 17.65 12.1 20.26 12.96 14.44 8.84 10.24 14.64 9.26 17.37 4.05"/>
              <polygon class="cls-37" points="17.37 4.45 19.96 9.4 25.47 10.34 21.56 14.33 22.37 19.86 17.37 17.38 12.36 19.86 13.17 14.33 9.27 10.34 14.78 9.4 17.37 4.45"/>
              <polygon class="cls-47" points="17.37 6.58 19.24 10.17 23.22 10.84 20.4 13.73 20.99 17.73 17.37 15.93 13.74 17.73 14.33 13.73 11.51 10.84 15.49 10.17 17.37 6.58"/>
              <polygon class="cls-41" points="17.37 7.03 19.09 10.33 22.75 10.95 20.15 13.6 20.69 17.28 17.37 15.63 14.04 17.28 14.58 13.6 11.98 10.95 15.64 10.33 17.37 7.03"/>
              <path class="cls-4" d="M22.75,10.95l-3.66-.62-1.72-3.29-1.72,3.29-3.66.62,2.6,2.65-.54,3.68,3.33-1.65,3.33,1.65-.54-3.68,2.6-2.65ZM20.37,16.78l-3.01-1.49-3.01,1.49.49-3.32-2.35-2.4,3.31-.56,1.56-2.97,1.56,2.97,3.31.56-2.35,2.4.49,3.32Z"/>
            </g>
            <g>
              <g>
                <g>
                  <path class="cls-34" d="M23.81,24.53l1.35,7.9s3.91-1.53,8.42,1.48c0,0-.48-3.25-1.24-4.82,0,0,1.91-1.77,2.69-2.58,0,0-3.53-3.32-11.23-1.98Z"/>
                  <path class="cls-29" d="M26.18,32.18s.03,0,.05,0c.65-.11,1.57-.2,2.65-.1v-7.79c-1.42-.13-3.1-.09-5.05.24l1.32,7.91s.28-.11.78-.21c.08-.02.16-.03.24-.05Z"/>
                </g>
                <g>
                  <path class="cls-1" d="M10.95,24.53l-1.35,7.9s-3.91-1.53-8.42,1.48c0,0,.48-3.25,1.24-4.82,0,0-1.91-1.77-2.69-2.58,0,0,3.53-3.32,11.23-1.98Z"/>
                  <path class="cls-28" d="M8.58,32.18s-.03,0-.05,0c-.65-.11-1.57-.2-2.65-.1v-7.79c1.42-.13,3.1-.09,5.05.24l-1.32,7.91s-.28-.11-.78-.21c-.08-.02-.16-.03-.24-.05Z"/>
                </g>
              </g>
              <rect class="cls-43" x="7.35" y="23.31" width="20.06" height="9.36"/>
            </g>
          </g>
          <g>
            <g class="cls-16">
              <path class="cls-6" d="M22.18,7.16c2.9,1.51,4.68,3.81,3.98,5.15-.7,1.34-3.61,1.2-6.51-.31-2.9-1.51-4.68-3.81-3.98-5.15.7-1.34,3.61-1.2,6.51.31Z"/>
            </g>
            <g class="cls-11">
              <path class="cls-8" d="M22.74,10.52c-.52,1.01-1.76,1.41-2.76.9-1.01-.52-1.4-1.76-.88-2.77.52-1.01,1.76-1.41,2.76-.9,1.01.52,1.4,1.76.88,2.77Z"/>
            </g>
          </g>
          <g class="cls-21">
            <path class="cls-9" d="M13.59,18.12c1.79,1.11,2.76,2.79,2.16,3.75-.6.96-2.53.84-4.32-.27-1.79-1.11-2.76-2.79-2.16-3.75s2.53-.84,4.32.27Z"/>
          </g>
          <path class="cls-31" d="M31.45,18.96s0,0,.01,0c.14.07.28.12.42.18.26.09.52.16.8.19.13.01.26.02.39,0,.39-.02.76-.14,1.09-.37.53-.37.87-.93,1.12-1.51.21-.5.34-1.06.37-1.6,0,0,0,0,0,0h0c-.32-.24-.73-.39-1.13-.42-.57-.05-1.12.16-1.55.53-.55.47-.94,1.1-1.26,1.76.14-.84.23-1.69.26-2.55.28.08.56.13.85.15,0,0,0,0,0,0h0c.51.03,1.02-.08,1.43-.39.5-.38.79-.95.95-1.55.15-.54.2-1.14.14-1.7-.02-.01-.04-.01-.06-.02-.72-.34-1.61-.23-2.19.31-.61.57-.9,1.38-1.12,2.17,0-.84-.06-1.68-.16-2.52.02,0,.03,0,.05,0,.07,0,.15.01.22.02,0,0,0,0,0,0h0c.14,0,.27,0,.41,0,.47-.03.94-.17,1.31-.49.42-.37.64-.92.73-1.46.09-.55.06-1.16-.07-1.7,0,0-.02,0-.02,0-.63-.21-1.38-.06-1.86.4-.58.56-.77,1.42-.87,2.19,0,.06-.01.12-.02.19-.13-.8-.3-1.59-.51-2.37.02,0,.04,0,.06,0,.07,0,.15,0,.22-.01.47-.04.96-.17,1.33-.48.44-.37.64-.92.68-1.48.02-.31,0-.63-.06-.94-.04-.23-.09-.48-.18-.7,0,0,0,0-.01,0-.54-.11-1.15.05-1.55.43-.46.44-.61,1.08-.66,1.69-.02.28-.03.56-.01.85-.22-.76-.48-1.5-.77-2.24.02,0,.04,0,.06,0,.07-.01.14-.02.21-.04.13-.03.26-.06.38-.1.22-.07.43-.17.61-.31.92-.7.76-2.09.3-3.01,0,0,0,0,0,0h0c-.42-.04-.88.09-1.21.37-.35.29-.51.71-.58,1.14-.08.49-.04,1,.05,1.49-.24-.59-.51-1.17-.78-1.74-.05-.11-.11-.21-.16-.32.07-.01.13-.03.19-.05.25-.07.49-.17.71-.31.48-.31.73-.82.72-1.39,0-.52-.17-1.06-.44-1.51,0,0,0,0,0,0,0,0,0,0,0,0-.6,0-1.17.35-1.39.91-.21.53-.14,1.15-.02,1.7.03.12.06.24.09.35-.24-.47-.5-.93-.76-1.38,0-.04.02-.11.04-.19,0-.03.01-.07.02-.1,0-.03,0-.06.01-.09,0-.05.02-.11.02-.16,0-.02,0-.03,0-.05,0-.06.01-.11.01-.16,0,0,0,0,0-.01,0-.59-.12-.88-.44-1.23-.21-.23-.58-.35-.94-.36-.22,0-.43.02-.61.09-.08.43-.05.9.1,1.31.16.45.5.77.96.88.17.04.55.09.72.1.07.12.14.25.21.37.04.08.08.17.13.25-.2-.2-.37-.29-.65-.35-.37-.08-.92.15-1.2.44.14.29.38.56.68.73.16.09.34.15.52.15.18,0,.36-.03.53-.11.11-.05.33-.18.43-.25.27.54.52,1.08.76,1.63h0s-.04-.05-.05-.08c-.09-.13-.19-.26-.3-.37-.21-.21-.46-.41-.75-.51-.52-.19-1.07.05-1.4.47,0,0,0,0-.01.01.21.44.59.87,1.05,1.04.13.05.27.08.4.08.4.02.79-.14,1.12-.37.02-.01.04-.03.05-.04.11.27.22.54.32.81.12.32.23.64.34.96,0,0,0,0,0,0-.06-.09-.12-.19-.18-.27-.14-.2-.3-.38-.49-.54-.25-.21-.56-.37-.9-.38-.43-.01-.86.22-1.14.54.21.5.58.99,1.09,1.23.19.09.39.13.59.13.33,0,.67-.1.97-.25.06-.03.12-.07.18-.1.07.2.13.4.19.61.13.43.24.87.35,1.31-.08-.16-.17-.31-.27-.46-.27-.39-.64-.77-1.12-.88-.52-.13-1.1.09-1.48.46.16.49.45.97.86,1.29.31.24.69.35,1.07.34.13,0,.26-.02.39-.04.13-.03.27-.07.39-.12.07-.03.14-.06.21-.09.02,0,.04-.02.05-.03.01.06.03.13.05.19.14.63.24,1.27.32,1.91-.02-.05-.04-.1-.06-.16-.18-.42-.42-.82-.77-1.12-.34-.29-.76-.43-1.21-.37-.34.05-.68.19-.94.4.09.5.35,1.02.7,1.38.36.38.86.58,1.38.58,0,0,0,0,0,0,0,0,0,0,0,0,.29,0,.57-.05.84-.13.04-.01.08-.03.12-.04.06.55.09,1.09.11,1.64,0,.2,0,.4,0,.59h0c-.14-.51-.34-1-.7-1.4-.6-.67-1.59-.68-2.33-.24.05.54.24,1.12.58,1.55.31.41.77.68,1.28.78.13.03.27.04.41.04.13,0,.27,0,.4-.01.12-.01.24-.03.35-.05-.03.77-.1,1.55-.21,2.31h0c-.05-.4-.14-.79-.31-1.15-.25-.53-.67-.95-1.25-1.08-.46-.1-.97-.04-1.4.13-.01.52.07,1.07.3,1.54.24.51.65.9,1.16,1.12.23.1.47.16.71.19.14.02.27.03.41.03.08,0,.15,0,.23,0h0s0,0,0,0c0,0,0,0,.01,0-.15.78-.35,1.56-.59,2.31,0-.25,0-.5-.04-.74-.09-.61-.34-1.21-.86-1.58-.53-.37-1.27-.44-1.89-.3-.11.5-.08,1.06.04,1.56.15.55.45,1.02.91,1.36.44.33.98.51,1.52.59-.06.15-.11.3-.17.44-.25.62-.54,1.22-.86,1.8.03-.14.06-.29.07-.43.08-.77-.03-1.6-.63-2.15-.48-.45-1.21-.64-1.86-.62,0,0,0,0,0,0h0s0,0,0,0c-.43,1.06-.33,2.35.46,3.21.35.37.78.65,1.25.84.06.02.11.05.17.07-.06.09-.12.17-.18.26-.33-.02-.67-.04-1.02-.04-.02-.15-.06-.29-.11-.43v-.48h-.25c-.41-.56-1.12-.91-1.79-1.05,0,0,0,0,0,0,0,0,0,0,0,0,0,0,0,0,0,0-.03.05-.05.1-.08.14-.41-.74-.96-1.19-1.56-1.19h-.46l-.96-6.49,4.59-4.69-6.47-1.1-3.04-5.82h0s0,0,0,0l-3.04,5.82h0s-6.47,1.1-6.47,1.1l4.59,4.69-.97,6.49h-.31c-.64,0-1.21.5-1.63,1.32-.05-.09-.1-.18-.16-.26,0,0,0,0,0,0,0,0,0,0,0,0-.68.14-1.38.49-1.8,1.05h-.22v.39c-.07.17-.12.34-.14.51-.35,0-.69.02-1.02.04-.06-.09-.12-.17-.17-.26.06-.02.11-.04.17-.07.47-.2.9-.47,1.25-.84.8-.86.9-2.15.46-3.21,0,0,0,0,0,0,0,0,0,0,0,0-.65-.02-1.39.17-1.87.62-.59.55-.71,1.38-.63,2.15.01.13.04.27.07.4-.32-.57-.6-1.17-.85-1.77-.06-.15-.12-.29-.17-.44.54-.08,1.08-.26,1.52-.59.46-.34.76-.81.91-1.36.12-.5.15-1.06.04-1.56,0,0,0,0-.01,0-.62-.14-1.36-.07-1.88.3-.52.37-.77.97-.86,1.58-.03.24-.04.47-.04.71-.24-.75-.43-1.51-.58-2.28,0,0,0,0,.01,0,0,0,0,0,0,0h0c.08,0,.15,0,.23,0,.14,0,.28-.02.41-.03.24-.04.48-.1.71-.19.52-.22.92-.62,1.16-1.12.23-.47.31-1.02.3-1.54,0,0-.01,0-.02,0-.43-.17-.94-.23-1.39-.13-.58.13-1,.55-1.25,1.08-.17.35-.26.73-.31,1.12-.11-.75-.18-1.51-.21-2.28.12.02.23.04.35.05.13.01.27.02.4.01.14,0,.27-.02.41-.04.51-.1.96-.37,1.28-.78.33-.43.53-1.01.58-1.55-.06-.03-.11-.06-.16-.08-.72-.36-1.62-.31-2.18.31-.35.39-.55.87-.69,1.37,0-.19,0-.37,0-.56.01-.55.05-1.1.11-1.64.04.01.08.03.12.04.27.08.56.13.84.13,0,0,0,0,0,0,0,0,0,0,0,0,.52,0,1.02-.2,1.38-.58.35-.36.61-.88.7-1.38,0,0-.02,0-.02-.01-.26-.2-.6-.35-.93-.39-.44-.06-.87.08-1.21.37-.35.3-.59.7-.77,1.12-.02.04-.03.08-.05.12.08-.63.17-1.26.31-1.87.01-.06.03-.13.05-.19.02,0,.04.02.05.03.07.03.14.06.21.09.13.05.26.09.39.12.13.03.26.04.39.04.38,0,.75-.1,1.07-.34.41-.32.7-.79.86-1.29-.02-.02-.04-.03-.05-.04-.38-.34-.93-.54-1.43-.42-.48.12-.85.49-1.12.88-.09.14-.18.28-.25.43.1-.43.21-.86.34-1.28.06-.2.12-.41.19-.61.06.04.12.07.18.1.3.16.63.26.97.25.2,0,.4-.04.59-.13.51-.23.88-.72,1.09-1.23,0,0-.02,0-.03-.01-.28-.31-.7-.54-1.13-.52-.33.01-.64.16-.9.38-.19.16-.35.34-.49.54-.06.08-.11.16-.16.25.11-.31.22-.62.33-.93.1-.27.21-.54.32-.81.02.01.04.03.05.04.33.23.72.39,1.12.37.13,0,.27-.03.4-.08.46-.18.85-.6,1.05-1.04,0,0,0,0-.01-.01-.01-.01-.02-.02-.03-.03-.33-.4-.87-.62-1.38-.44-.29.1-.54.3-.75.51-.11.11-.21.24-.31.37,0,.01-.02.03-.03.04.23-.54.48-1.07.74-1.59.11.07.32.2.43.25.17.08.35.12.53.11.18,0,.36-.06.53-.15.31-.18.55-.44.68-.73,0,0,0,0-.01,0-.28-.29-.83-.52-1.19-.44-.28.06-.46.15-.66.36.04-.08.08-.17.13-.26.07-.12.14-.25.21-.37h0c.17-.02.55-.07.72-.11.46-.1.81-.43.96-.88.15-.41.17-.88.1-1.31,0,0,0,0,0,0-.17-.07-.39-.1-.61-.09-.37.01-.74.13-.95.36-.32.36-.44.64-.44,1.23,0,.21.09.62.11.75-.27.46-.53.93-.78,1.41,0,0,0,0,0,0,.03-.13.07-.25.1-.38.12-.54.19-1.16-.02-1.7-.22-.55-.78-.9-1.37-.91,0,0,0,0,0,0,0,0,0,0,0,0,0,0,0,0,0,0-.27.45-.43.99-.44,1.51,0,.57.24,1.08.72,1.39.22.14.46.24.71.31.06.02.13.03.19.05-.05.11-.11.21-.16.32-.28.58-.55,1.17-.8,1.77,0,0,0,0,0,0,.08-.5.13-1.02.05-1.52-.07-.43-.23-.85-.58-1.14-.32-.27-.78-.4-1.2-.37h0s0,0,0,0c0,0,0,0,0,0-.46.92-.62,2.31.3,3.01.18.14.39.24.61.31.12.04.25.07.38.1.07.01.14.03.21.04.02,0,.04,0,.06,0-.29.74-.55,1.5-.78,2.27h0c.01-.29,0-.59-.01-.88-.05-.61-.2-1.26-.66-1.69-.4-.38-1.01-.54-1.55-.43-.09.22-.14.46-.18.7-.05.31-.08.62-.06.94.04.56.24,1.12.68,1.48.37.31.86.44,1.33.48.07,0,.15.01.22.01.02,0,.04,0,.06,0-.21.79-.38,1.59-.51,2.39,0,0,0,0,0,.01,0-.07-.02-.15-.03-.22-.1-.77-.29-1.63-.87-2.19-.48-.46-1.24-.61-1.87-.4-.14.54-.17,1.15-.07,1.7.09.54.31,1.09.73,1.46.36.32.83.46,1.31.49.14,0,.27,0,.41,0h0s0,0,0,0c.07,0,.15,0,.22-.02.02,0,.03,0,.05,0-.1.84-.16,1.7-.16,2.55-.22-.8-.51-1.62-1.13-2.2-.6-.55-1.51-.66-2.24-.29-.06.56,0,1.16.14,1.7.16.59.45,1.17.95,1.55.41.31.92.41,1.43.39h0s0,0,0,0c.29-.02.57-.07.85-.15.03.86.12,1.72.26,2.57-.32-.67-.72-1.31-1.27-1.79-.43-.37-.98-.58-1.55-.53-.4.03-.81.18-1.13.42.03.54.16,1.1.37,1.6.24.59.59,1.14,1.12,1.51.32.23.7.35,1.09.37.13,0,.26,0,.39,0,.27-.03.54-.1.8-.19.14-.05.28-.11.42-.18,0,0,0,0,0,0,0,.01,0,.03,0,.04.2.85.46,1.69.77,2.51-.07-.09-.14-.17-.21-.26-.3-.35-.61-.69-.98-.98-.48-.37-1.06-.66-1.69-.64-.56.01-1.1.27-1.51.66-.01.01-.03.03-.04.04h0s-.04.04-.05.05c.14.56.4,1.11.71,1.6.34.54.79,1.03,1.36,1.33.36.19.76.28,1.16.26.14,0,.27-.02.41-.06.51-.12.97-.39,1.39-.71.25.53.53,1.03.83,1.53-.2.02-.4.05-.59.08-.14-.08-.28-.15-.42-.22-.56-.25-1.19-.39-1.8-.24-.54.13-1.02.48-1.35.93-.05.07-.1.15-.14.22.07.13.14.25.21.38-1.09.53-1.62,1.03-1.62,1.03.79.81,2.69,2.58,2.69,2.58-.76,1.57-1.24,4.82-1.24,4.82,2.39-1.6,4.61-1.91,6.17-1.86v.62h1.5v2.07h-.29c-.11,0-.21.04-.3.12-.04.04-.08.08-.12.13-.1.13-.18.29-.22.49l-.43,1.78h-.43c-.25,0-.5.35-.55.77l-.24,2.01h22.22l-.24-2.01c-.05-.43-.3-.77-.55-.77h-.29l-.43-1.78c-.02-.07-.04-.14-.07-.21,0-.02-.01-.03-.02-.05-.05-.13-.12-.23-.2-.31,0,0-.02-.02-.03-.03-.04-.04-.08-.07-.13-.09-.07-.03-.14-.05-.21-.05h-.29v-2.07h1.38v-.62c1.56-.05,3.78.27,6.17,1.86,0,0-.48-3.25-1.24-4.82,0,0,1.91-1.77,2.69-2.58,0,0-.54-.5-1.64-1.04.07-.12.14-.24.21-.37-.04-.08-.09-.15-.14-.22-.01-.02-.03-.02-.04-.04-.33-.43-.79-.77-1.32-.89-.61-.15-1.24-.01-1.8.24-.14.06-.28.14-.42.21-.19-.03-.39-.06-.59-.08,0-.01.02-.03.02-.04.1-.17.2-.33.29-.5.2-.36.39-.7.52-.98.41.32.88.59,1.39.71.14.03.27.05.41.06.4.02.8-.07,1.16-.26.57-.3,1.02-.79,1.36-1.33.31-.49.57-1.04.71-1.6-.03-.03-.05-.08-.09-.1,0,0-.01,0-.02,0-.4-.38-.94-.64-1.5-.65-.63-.02-1.2.26-1.69.64-.36.28-.68.62-.98.98-.07.08-.13.16-.19.24.31-.81.56-1.65.76-2.49,0-.01,0-.03,0-.04ZM17.37,18.29l5.83,2.92h-11.66l5.83-2.92Z"/>
        </g>
      </g>
    </g>
  </g>
</svg>